<?xml version="1.0" encoding="UTF-8" standalone="no"?>
<svg version="1.1" xmlns="http://www.w3.org/2000/svg" xmlns:xlink="http://www.w3.org/1999/xlink" width="406.33" height="194.78" viewBox="786.335 514.61 406.33 194.78"><defs><linearGradient x1="893.65422" y1="585.15151" x2="892.78291" y2="579.21356" gradientUnits="userSpaceOnUse" id="color-1"><stop offset="0" stop-color="#8d5329"/><stop offset="1" stop-color="#d48b32"/></linearGradient><linearGradient x1="1049.99392" y1="619.51574" x2="1060.32387" y2="618.95764" gradientUnits="userSpaceOnUse" id="color-2"><stop offset="0" stop-color="#cc6f2b"/><stop offset="1" stop-color="#7e6140"/></linearGradient><linearGradient x1="1061.14133" y1="651.66773" x2="1061.54185" y2="641.28855" gradientUnits="userSpaceOnUse" id="color-3"><stop offset="0" stop-color="#b2a593"/><stop offset="1" stop-color="#dfcbba"/></linearGradient><linearGradient x1="919.80621" y1="643.41265" x2="920.179" y2="652.95794" gradientUnits="userSpaceOnUse" id="color-4"><stop offset="0" stop-color="#a38f77"/><stop offset="1" stop-color="#c9bbac"/></linearGradient></defs><g id="document" fill="#ffffff" fill-rule="nonzero" font-family="none" font-weight="none" font-size="none"><rect x="1354.64893" y="1321.00318" transform="scale(0.58047,0.38956)" width="700" height="500" id="Shape-1-1"/></g><g fill="none" fill-rule="nonzero" stroke="none" stroke-width="1" stroke-linecap="butt" stroke-linejoin="miter" stroke-miterlimit="10" font-family="none" font-weight="none" font-size="none"><g><g id="stage"><g id="layer1-1"><g id="Group-1"><g id="Group-1-1"><g id="Group-1-2"><path d="M869.01208,527.37889c1.88969,-1.15692 6.97111,-3.59307 9.1039,-4.23719c0.94058,-0.28414 4.93187,-0.57633 6.16973,-0.68352l10.63164,-0.92745c11.66529,-1.11589 23.34191,-2.10916 35.02805,-2.97964c4.11359,-0.30499 12.49047,-1.14183 16.23456,-0.89543c1.07124,0.15332 1.88132,0.52281 2.55384,1.41595c0.16891,0.22669 0.32584,0.46208 0.47012,0.70519c0.522,1.50673 0.69156,3.68877 0.85867,5.29087c2.95124,-0.88313 10.13214,-3.26477 12.86556,-3.41874c2.55729,-0.14412 8.05581,0.15298 10.80089,0.21848c9.15561,0.22177 18.30859,0.52594 27.45829,0.91234l14.57813,0.46012c1.891,0.06123 6.25738,0.11326 7.93172,0.48342c1.28694,0.66382 1.8434,1.12984 2.54267,2.40873l0.09521,1.17302c0.0197,0.8324 0.05417,1.70667 0.04597,2.53561c2.37196,-0.72275 6.97636,-2.26231 9.1891,-2.35177c3.88543,-0.15693 8.46355,0.07403 12.38838,0.22997l20.98325,0.90889l19.18417,0.87639c3.96914,0.17597 8.84274,0.22636 12.67563,0.81385c1.49212,0.27495 2.75935,1.13559 3.27806,2.61129c0.55975,2.63329 -0.21339,11.45551 -0.33979,14.71749l-0.94879,21.22521c-0.19369,4.24885 -0.28398,8.48063 -0.6566,12.71881c-0.32173,3.65249 -1.24425,3.43926 -3.81319,5.42154c9.4025,0.00262 18.92152,0.68401 28.32402,1.02036c2.31123,0.08273 4.63887,0.30696 6.91726,0.70897c1.27052,0.54941 2.24392,1.32879 2.76428,2.64822c0.3677,2.14822 0.25443,6.24639 0.25936,8.59045l0.02134,14.08732l-0.01149,16.70878c-0.00657,2.4803 0.09521,7.17169 -0.20354,9.44353c-0.04268,1.48555 0.03612,2.16513 -0.59587,3.51444l0.32009,0.08536c1.41661,0.37754 3.53578,0.47111 4.33355,1.81057c0.00985,1.56599 -2.15857,2.33749 -3.30105,3.10735c-5.96684,4.01839 -12.5082,3.66053 -19.44516,3.63098c-7.64773,-0.08536 -15.29382,-0.30696 -22.93334,-0.66152c-10.15757,-0.39396 -20.32173,-0.57288 -30.47602,-1.02922c-2.72817,-0.12311 -6.01608,0.04104 -8.57682,-0.83388c-5.17728,1.70716 -19.94582,0.78628 -25.80268,0.57616l-24.89493,-0.96027c-2.92351,-0.12968 -5.84701,-0.22981 -8.77215,-0.29875c-2.52462,-0.0673 -5.08043,0.03775 -7.51969,-0.52364c-2.17498,-0.56303 -4.58634,0.86343 -6.58568,-0.12311c-0.72882,0.36442 -1.49097,0.80433 -2.27889,0.57616c-0.01412,0 -0.02807,0.00164 -0.04219,0.00164c-1.4089,0.40874 -2.87885,0.46291 -4.33667,0.42351c-4.66924,-0.12311 -9.31845,-0.5614 -13.97274,-0.8979l-22.69927,-1.68089l-12.02527,-0.97177c-3.25821,-0.28562 -8.24967,-0.07222 -9.90528,-3.26821c-1.16727,1.02101 -1.14937,2.18647 -3.05679,1.78266c-3.21093,1.44123 -14.55399,2.11425 -18.79399,2.49507l-14.62376,1.36572c-9.78989,0.88477 -19.57304,1.84012 -29.34863,2.86934c0.52446,-0.0279 1.06993,-0.13953 1.48933,0.11491l0.10079,0.2692l-2.31221,0.03447c-2.4043,0.31517 -9.28036,0.38247 -11.24047,-1.55942c-1.6479,-1.63164 2.92909,-3.29613 3.96766,-3.72455c-0.04153,-0.9176 -0.32567,-2.63624 -0.42269,-3.6589c-0.2981,-3.283 -0.61441,-6.56598 -0.94895,-9.84569c-0.94452,-9.37786 -1.80252,-18.76558 -2.57403,-28.15986c-0.2349,-2.88576 -0.82682,-7.17006 -0.44222,-10.0197c0.13461,-0.99639 1.42728,-2.88149 2.41184,-3.41267c2.53939,-1.72504 11.04579,-6.43581 13.7784,-7.6822c2.83535,-1.29317 12.26427,-1.71717 15.84996,-1.99458l0.69665,-0.11836c-1.40841,-4.77889 -1.9565,-14.20025 -2.51247,-19.4404l-1.56418,-15.30663c-0.47177,-4.44944 -0.99606,-8.8887 -1.23227,-13.35964c-0.15824,-2.99556 -0.08355,-4.5911 2.90774,-5.96684z" id="Path-1" fill="#fdf1c2"/><path d="M1026.38101,529.84064c2.37196,-0.72275 6.97636,-2.26231 9.1891,-2.35177c3.88543,-0.15693 8.46355,0.07403 12.38838,0.22997l20.98325,0.90889l19.18417,0.87639c3.96914,0.17597 8.84274,0.22636 12.67563,0.81385c1.49212,0.27495 2.75935,1.13559 3.27806,2.61129c0.55975,2.63329 -0.21339,11.45551 -0.33979,14.71749l-0.94879,21.22521c-0.19369,4.24885 -0.28398,8.48063 -0.6566,12.71881c-0.32173,3.65249 -1.24425,3.43926 -3.81319,5.42154l-0.19698,0.13575c-2.27676,1.18581 -4.48621,2.71963 -7.00262,3.38329c-2.02396,0.53332 -4.5174,0.29005 -6.62015,0.3104c-1.63493,0.01576 -3.43565,0.01494 -5.02626,-0.34504c-0.54498,-0.14478 -0.95864,-0.35719 -1.55122,-0.47128l-1.00624,-0.00936c-1.4757,0.20009 -5.47275,-0.00903 -7.15199,-0.06911c-2.66251,-0.09553 -6.77445,0.20404 -9.27117,0.00788c-2.90216,-0.76329 -3.19107,1.01953 -5.5105,1.90512c-0.50558,-0.71602 -3.33223,-1.51411 -4.29908,-1.39494c-0.42843,-0.15856 -1.44288,-0.29662 -1.94025,-0.38148c-2.16513,-0.18204 -4.9803,-0.18335 -7.20781,-0.28316l-16.02264,-0.72161c-0.91103,-0.7042 -1.12443,-0.53086 -2.24064,-0.88116l-0.24623,-0.07928c-0.89133,-0.28085 -1.31484,-0.74262 -2.02396,-1.35325l0.70749,-0.42859c-0.79284,-0.60817 -1.15398,-1.12443 -1.63821,-1.97522c-0.90775,-3.39363 -0.46454,-8.04268 -0.31188,-11.59126l0.58273,-13.59503c0.19041,-5.5128 0.41366,-11.02446 0.66645,-16.53479c0.11326,-2.74573 0.07059,-5.54055 0.37754,-8.26953c0.32502,-2.88198 2.17662,-3.94008 4.88673,-4.04891l0.06074,-3.01674c0.0197,0.8324 0.05417,1.70667 0.04597,2.53561z" id="Path-1-1" fill="#fdf1c2"/><path d="M1100.80152,530.31799c1.49212,0.27495 2.75935,1.13559 3.27806,2.61129c0.55975,2.63329 -0.21339,11.45551 -0.33979,14.71749l-0.94879,21.22521c-0.19369,4.24885 -0.28398,8.48063 -0.6566,12.71881c-0.32173,3.65249 -1.24425,3.43926 -3.81319,5.42154l-0.19698,0.13575c-2.27676,1.18581 -4.48621,2.71963 -7.00262,3.38329c-2.02396,0.53332 -4.5174,0.29005 -6.62015,0.3104c-1.63493,0.01576 -3.43565,0.01494 -5.02626,-0.34504c-0.54498,-0.14478 -0.95864,-0.35719 -1.55122,-0.47128c2.22259,-0.06812 5.7715,0.19928 7.93827,0.30598c6.15725,0.30285 7.11096,-1.23178 7.21438,-7.08864c0.0394,-2.21635 0.20683,-5.3109 0.31353,-7.66546l1.0325,-24.28511c0.14938,-3.5417 0.22981,-9.52987 0.65824,-12.91151l0.03775,-0.28972c-1.26231,-1.47406 -0.24951,-3.75771 -3.20419,-4.33946c2.16349,0.01264 7.27347,-1.935 8.90347,-3.14724z" id="Path-1-2" fill="#ae6633"/><path d="M1100.80152,530.31799c1.49212,0.27495 2.75935,1.13559 3.27806,2.61129c-2.3851,0.88247 -5.26756,1.79957 -7.47373,3.10029c-0.88148,0.51937 -1.16053,1.1126 -1.4872,2.06139c-1.26231,-1.47406 -0.24951,-3.75771 -3.20419,-4.33946c2.16349,0.01264 7.27347,-1.935 8.90347,-3.14724z" id="Path-1-3" fill="#f6d39d"/><path d="M1026.38101,529.84064c2.37196,-0.72275 6.97636,-2.26231 9.1891,-2.35177c3.88543,-0.15693 8.46355,0.07403 12.38838,0.22997l20.98325,0.90889l19.18417,0.87639c3.96914,0.17597 8.84274,0.22636 12.67563,0.81385l0.01642,0.28628c-1.63001,1.21225 -6.73999,3.15988 -8.90347,3.14724c-4.50426,-0.43746 -10.48916,-0.63658 -15.06729,-0.90118l-32.41791,-1.78775c-5.93729,-0.27544 -12.27511,-0.33405 -18.15495,-0.7408l0.06074,-3.01674c0.0197,0.8324 0.05417,1.70667 0.04597,2.53561z" id="Path-1-4" fill="#f4aa2b"/><path d="M1021.71095,586.33651c0.57781,0.25377 1.37064,0.58782 1.99114,0.65102c11.29022,1.14921 22.70518,1.22538 34.02821,1.92088c-2.26034,0.36753 -4.78825,0.14511 -7.10111,0.81632c-0.69435,0.20174 -1.05876,-0.00575 -1.88444,0.35883c-2.16513,-0.18204 -4.9803,-0.18335 -7.20781,-0.28316l-16.02264,-0.72161c-0.91103,-0.7042 -1.12443,-0.53086 -2.24064,-0.88116l-0.24623,-0.07928c-0.89133,-0.28085 -1.31484,-0.74262 -2.02396,-1.35325z" id="Path-1-5" fill="#8d5329"/><path d="M1057.7303,588.90841l11.25574,0.52002c2.09455,0.09127 5.98326,0.19485 7.93172,0.58765c-1.4757,0.20009 -5.47275,-0.00903 -7.15199,-0.06911c-2.66251,-0.09553 -6.77445,0.20404 -9.27117,0.00788c-2.90216,-0.76329 -3.19107,1.01953 -5.5105,1.90512c-0.50558,-0.71602 -3.33223,-1.51411 -4.29908,-1.39494c-0.42843,-0.15856 -1.44288,-0.29662 -1.94025,-0.38148c0.82568,-0.36457 1.19008,-0.1571 1.88444,-0.35883c2.31286,-0.6712 4.84077,-0.44879 7.10111,-0.81632z" id="Path-1-6" fill="#9a7654"/><path d="M1027.41679,534.26891c2.59849,-0.1717 6.59718,0.03464 9.28102,0.1213c6.1277,0.20174 12.25377,0.48195 18.37327,0.84045c10.78134,0.5453 21.60865,1.19682 32.38508,1.85014c2.89559,0.17547 3.49146,1.50722 3.44222,4.19731c-0.11491,6.07304 -0.50394,12.14182 -0.73867,18.21684l-0.51708,12.74047c-0.08044,2.44616 -0.11983,4.91251 -0.25608,7.35456c-0.15923,2.87541 0.30203,5.33174 -2.62476,6.7866c-3.01378,0.55794 -8.90676,-0.13706 -12.18647,-0.30319l-18.18613,-0.94222c-7.72981,-0.40217 -15.4514,-0.75623 -23.17629,-1.27938c-1.94681,-0.13182 -5.93893,-0.08913 -7.57386,-0.74721c-0.83388,-0.33585 -1.88115,-1.16317 -2.18647,-2.03578c-0.69435,-1.98883 0.74524,-29.18893 0.92417,-33.47864c0.13461,-3.26067 0.02627,-6.61407 0.34964,-9.8544c0.06894,-0.69977 0.22488,-1.424 0.57288,-2.04136c0.52364,-0.92449 1.12606,-1.16448 2.11753,-1.42547z" id="Path-1-7" fill="#f4aa2b"/><path d="M1068.56746,554.98262c-0.58108,-0.40578 -1.15725,-0.77462 -1.49212,-1.40693c-0.81418,-1.53349 -1.05548,-3.36359 -2.0847,-4.77462c-0.84045,-1.15102 -2.90544,-2.02561 -4.26297,-2.33486c-12.33749,-2.80778 -15.30202,15.68089 -10.35784,23.37524c2.97931,4.95059 11.92875,5.62442 15.18383,0.69781c1.64806,-2.49277 1.87295,-4.86227 5.81747,-4.14495c2.67236,0.48637 4.07747,2.67794 3.0893,5.2802c-1.44451,3.80351 -4.79153,6.55958 -8.47833,8.07272c-4.56828,1.82271 -11.24097,1.70961 -15.82238,-0.01773c-4.6126,-1.73998 -8.8214,-5.44058 -10.77642,-10.00081c-2.37032,-5.52692 -2.34734,-12.83289 -0.11326,-18.41562c1.90577,-4.71963 5.62704,-8.47603 10.3283,-10.42432c7.74786,-3.23046 20.10833,-1.79547 24.58468,6.05383c0.3677,0.64527 0.66645,1.36753 0.94879,2.05417l0.23309,0.00706c0.62705,1.08848 0.67302,2.89888 0.40874,4.10243c-0.61557,2.80843 -5.07223,3.9437 -7.22423,2.33421c-0.04432,-0.36589 -0.07715,-0.21668 0.01805,-0.45781z" id="Path-1-8" fill="#fdf1c2"/><path d="M1075.1318,548.99674l0.23309,0.00706c0.62705,1.08848 0.67302,2.89888 0.40874,4.10243c-0.61557,2.80843 -5.07223,3.9437 -7.22423,2.33421c-0.04432,-0.36589 -0.07715,-0.21668 0.01805,-0.45781c0.87492,0.24803 1.78923,0.32994 2.6937,0.24147c3.41432,-0.31665 4.37131,-3.24426 3.87065,-6.22735z" id="Path-1-9" fill="#d88a2f"/><path d="M917.494,580.43582c1.68778,0.18582 3.15052,0.27512 4.86622,0.26001l-0.03054,0.15989l0.07042,0.31156c0.35341,1.52101 0.55926,3.07255 0.61458,4.63312l-0.04039,0.29153c-2.63788,0.65972 -3.52002,2.62755 -3.7367,5.18532c-0.44714,5.28053 -0.56468,10.59898 -0.94731,15.88623c-0.55515,10.04103 -1.34866,20.13295 -1.86917,30.16413c-0.13247,2.25706 -0.00591,3.13854 0.46126,5.36933c-1.16727,1.02101 -1.14937,2.18647 -3.05679,1.78266c-3.21093,1.44123 -14.55399,2.11425 -18.79399,2.49507l-14.62376,1.36572c-9.78989,0.88477 -19.57304,1.84012 -29.34863,2.86934c0.52446,-0.0279 1.06993,-0.13953 1.48933,0.11491l0.10079,0.2692l-2.31221,0.03447c-2.4043,0.31517 -9.28036,0.38247 -11.24047,-1.55942c-1.6479,-1.63164 2.92909,-3.29613 3.96766,-3.72455c-0.04153,-0.9176 -0.32567,-2.63624 -0.42269,-3.6589c-0.2981,-3.283 -0.61441,-6.56598 -0.94895,-9.84569c-0.94452,-9.37786 -1.80252,-18.76558 -2.57403,-28.15986c-0.2349,-2.88576 -0.82682,-7.17006 -0.44222,-10.0197c0.13461,-0.99639 1.42728,-2.88149 2.41184,-3.41267c2.53939,-1.72504 11.04579,-6.43581 13.7784,-7.6822c2.83535,-1.29317 12.26427,-1.71717 15.84996,-1.99458c0.59127,0.22275 0.63789,0.12426 0.93269,0.55269c-0.10555,0.54333 -0.17728,1.4588 0.30482,1.86967c1.30713,1.11441 4.25344,1.43237 5.9263,1.37787c10.29809,-0.33552 21.05071,-2.36851 31.30399,-2.44221c1.92547,-0.08142 3.01723,0.04087 4.77494,-0.74737c1.01986,-0.5041 1.31894,-0.54826 1.71109,-1.5668c0.34554,-0.10949 1.40348,-0.14954 1.82353,-0.17876z" id="Path-1-10" fill="#fdf1c2"/><path d="M917.494,580.43582c1.68778,0.18582 3.15052,0.27512 4.86622,0.26001l-0.03054,0.15989l0.07042,0.31156c0.35341,1.52101 0.55926,3.07255 0.61458,4.63312l-0.04039,0.29153c-2.63788,0.65972 -3.52002,2.62755 -3.7367,5.18532c-0.44714,5.28053 -0.56468,10.59898 -0.94731,15.88623c-0.55515,10.04103 -1.34866,20.13295 -1.86917,30.16413c-0.16957,0.50886 -0.18532,0.74852 -0.62574,1.04399c-0.55286,-3.99048 -0.73556,-8.88214 -1.15939,-12.96126c-1.23884,-11.92055 -1.8283,-24.15462 -3.17219,-36.03938c-0.13888,-1.8713 -1.30482,-3.73145 -2.96225,-4.62196c1.55581,-0.45387 2.53415,-0.77151 4.02676,-1.38953l-0.28135,-0.28645c-0.78381,-0.18779 -2.19583,-0.14002 -3.06254,-0.14429c1.92547,-0.08142 3.01723,0.04087 4.77494,-0.74737c1.01986,-0.5041 1.31894,-0.54826 1.71109,-1.5668c0.34554,-0.10949 1.40348,-0.14954 1.82353,-0.17876z" id="Path-1-11" fill="#ae6633"/><path d="M917.494,580.43582c1.68778,0.18582 3.15052,0.27512 4.86622,0.26001l-0.03054,0.15989l0.07042,0.31156c-0.82223,0.1392 -1.01839,0.13247 -1.73802,0.50755c-0.41907,0.37196 -1.43943,1.13329 -1.95798,1.36868c-0.62394,0.38312 -1.43582,0.94205 -2.10981,1.15529c-1.17581,-0.66792 -2.71192,-1.05925 -4.06599,-0.83929l-0.28135,-0.28645c-0.78381,-0.18779 -2.19583,-0.14002 -3.06254,-0.14429c1.92547,-0.08142 3.01723,0.04087 4.77494,-0.74737c1.01986,-0.5041 1.31894,-0.54826 1.71109,-1.5668c0.34554,-0.10949 1.40348,-0.14954 1.82353,-0.17876z" id="Path-1-12" fill="#a37f60"/><path d="M913.95936,582.18139c1.49475,-0.29416 2.57797,0.62344 4.01592,0.66645c0.46668,0.01395 0.26313,-0.0522 0.72882,0.19567c-0.62394,0.38312 -1.43582,0.94205 -2.10981,1.15529c-1.17581,-0.66792 -2.71192,-1.05925 -4.06599,-0.83929l-0.28135,-0.28645c-0.78381,-0.18779 -2.19583,-0.14002 -3.06254,-0.14429c1.92547,-0.08142 3.01723,0.04087 4.77494,-0.74737z" id="Path-1-13" fill="#9a7654"/><path d="M920.66209,581.67482c-0.7848,-0.19961 -1.54991,-0.08388 -2.40512,-0.09209c-0.42514,-0.24885 -0.30843,-0.06829 -0.42711,-0.5041c0.60752,-0.456 3.50098,-0.21865 4.49984,-0.22292l0.07042,0.31156c-0.82223,0.1392 -1.01839,0.13247 -1.73802,0.50755z" id="Path-1-14" fill="#9a7654"/><path d="M912.52831,583.35949c1.35407,-0.21996 2.89018,0.17137 4.06599,0.83929c-1.42827,0.88427 -4.68483,2.39068 -5.04711,4.01986c-0.04136,0.18565 -0.07535,0.9176 -0.08338,1.15233c-0.13888,-1.8713 -1.30482,-3.73145 -2.96225,-4.62196c1.55581,-0.45387 2.53415,-0.77151 4.02676,-1.38953z" id="Path-1-15" fill="#f6d39d"/><path d="M841.08826,591.24754c2.53939,-1.72504 11.04579,-6.43581 13.7784,-7.6822c2.83535,-1.29317 12.26427,-1.71717 15.84996,-1.99458c0.59127,0.22275 0.63789,0.12426 0.93269,0.55269c-0.10555,0.54333 -0.17728,1.4588 0.30482,1.86967c1.30713,1.11441 4.25344,1.43237 5.9263,1.37787c10.29809,-0.33552 21.05071,-2.36851 31.30399,-2.44221c0.86671,0.00427 2.27873,-0.0435 3.06254,0.14429l0.28135,0.28645c-1.49261,0.61802 -2.47094,0.93565 -4.02676,1.38953c-6.40233,0.26544 -13.92136,0.92941 -20.3603,1.57223l-30.94073,3.19861c-2.30728,0.25295 -14.78528,2.05926 -16.11227,1.72768z" id="Path-1-16" fill="#f4aa2b"/><path d="M843.0643,646.34436c0.39544,1.90577 0.6653,3.11227 2.40922,4.25312c0.25082,0.16414 1.00656,0.49245 1.16596,0.62213l-0.07551,0.24951c1.02184,0.21503 2.67269,0.11162 3.77314,0.15923c-2.4043,0.31517 -9.28036,0.38247 -11.24047,-1.55942c-1.6479,-1.63164 2.92909,-3.29613 3.96766,-3.72455z" id="Path-1-17" fill="#e1d0c0"/><path d="M915.79538,638.37161c0.44042,-0.29547 0.45617,-0.53513 0.62574,-1.04399c-0.13247,2.25706 -0.00591,3.13854 0.46126,5.36933c-1.16727,1.02101 -1.14937,2.18647 -3.05679,1.78266c2.26543,-1.91891 1.91841,-3.32895 1.96979,-6.108z" id="Path-1-18" fill="#d88a2f"/><path d="M851.0592,651.20975c0.52446,-0.0279 1.06993,-0.13953 1.48933,0.11491l0.10079,0.2692l-2.31221,0.03447c-1.10046,-0.0476 -2.75131,0.05581 -3.77314,-0.15923l0.07551,-0.24951c1.56418,0.087 2.86162,0.04104 4.41973,-0.00985z" id="Path-1-19" fill="#a37f60"/><path d="M902.86498,588.78644c3.01001,-0.31796 4.74245,0.48671 5.08766,3.65725c0.32764,3.01099 0.52725,6.00672 0.79366,9.01887l1.57042,17.54267l1.07814,12.02068c0.22915,2.55581 1.14806,7.30958 -0.34159,9.44517c-0.46241,0.66317 -2.69583,1.11786 -3.51247,1.22455c-6.72603,0.8782 -13.51264,1.37886 -20.26574,2.03546c-11.96208,1.27709 -23.93958,2.40643 -35.92989,3.38477c-4.06861,0.10014 -4.71733,-1.17038 -5.11818,-5.087c-0.23243,-2.27183 -0.44239,-4.59619 -0.65906,-6.87131l-1.76002,-19.50097c-0.47291,-5.41693 -1.3155,-10.81254 -1.60539,-16.21962c-0.17055,-3.18122 0.73621,-4.043 3.65791,-4.59783c2.7825,-0.52691 5.66956,-0.76166 8.47193,-1.06533l11.01559,-1.25936c12.4908,-1.38723 24.99736,-2.63 37.51705,-3.72801z" id="Path-1-20" fill="#f4aa2b"/><path d="M876.02586,603.64247c0.41202,-1.80236 1.87394,-8.37819 4.1543,-8.50788c2.58585,0.91595 -0.65414,5.97013 -1.24129,8.2321c2.23555,-1.25739 3.31517,-1.95174 5.89199,-2.39823c5.20781,-0.90447 9.48719,2.065 12.01149,6.68582c5.13378,9.39593 2.84701,24.86866 -6.47899,30.99145c-2.36228,1.55122 -7.42416,0.26592 -10.17038,-0.19369c-2.43188,0.90282 -4.29892,3.04333 -7.08191,2.83979c-14.12639,-1.03579 -24.13393,-28.26 -8.43302,-34.21534c0.15627,-0.05909 0.31353,-0.11654 0.47143,-0.17071c-2.21143,-1.45436 -5.70928,-4.59947 -7.61342,-6.44615c5.11326,-5.86179 13.01788,-7.10571 17.34109,0.69271c0.44846,0.80926 0.69041,1.66941 1.14872,2.49015z" id="Path-1-21" fill="#da3b28"/><path d="M857.53605,600.45961c5.11326,-5.86179 13.01788,-7.10571 17.34109,0.69271c0.44846,0.80926 0.69041,1.66941 1.14872,2.49015c-0.16596,1.4872 -0.28529,2.45404 -0.24754,3.93467c-4.47833,0.23473 -5.88903,1.99278 -10.62885,-0.67137c-2.21143,-1.45436 -5.70928,-4.59947 -7.61342,-6.44615z" id="Path-1-22" fill="#699946"/><path d="M865.88339,598.42908c3.39937,-0.35128 8.49556,2.35063 8.27084,6.00623c-0.31878,0.50394 -0.10128,0.35292 -0.65676,0.49409c-0.73292,-0.15431 -1.14642,-0.60243 -1.7418,-1.08667c-3.61293,-3.37492 -5.8608,-1.30007 -9.62688,-2.86277c-0.16497,-0.0673 -0.11179,-0.21668 -0.1113,-0.46126c0.69633,-1.03742 2.6891,-1.7367 3.86588,-2.08963z" id="Path-1-23" fill="#7eb352"/><path d="M876.02586,603.64247c0.41202,-1.80236 1.87394,-8.37819 4.1543,-8.50788c2.58585,0.91595 -0.65414,5.97013 -1.24129,8.2321l-0.05516,0.21503c-0.53332,2.14215 0.02363,4.39757 -0.5719,5.36769c-0.46274,0.21339 -0.6113,0.19863 -1.11441,0.26264l-0.83667,0.10506c-0.39215,-0.3086 -0.48079,-1.21307 -0.58241,-1.73998c-0.03775,-1.48063 0.08158,-2.44747 0.24754,-3.93467z" id="Path-1-24" fill="#2d2822"/><path d="M877.1974,609.21207c1.09915,-0.08864 2.43549,0.09685 2.84324,1.25082c-0.47555,3.61622 -8.42006,4.40906 -7.68302,0.79613c0.83306,-1.05384 2.71306,-1.55614 4.00311,-1.94189z" id="Path-1-25" fill="#ef856b"/><path d="M886.6058,603.68022c0.87837,-0.04268 1.41579,-0.04597 2.27659,0.16908c2.50492,0.62705 6.98703,4.67826 3.12246,6.70552c-1.2999,-0.33979 -6.79169,-5.02298 -6.81812,-6.10308c0.40775,-0.46126 0.8365,-0.5499 1.41908,-0.77151z" id="Path-1-26" fill="#ef856b"/><path d="M869.01208,527.37889c1.88969,-1.15692 6.97111,-3.59307 9.1039,-4.23719c0.94058,-0.28414 4.93187,-0.57633 6.16973,-0.68352l10.63164,-0.92745c11.66529,-1.11589 23.34191,-2.10916 35.02805,-2.97964c4.11359,-0.30499 12.49047,-1.14183 16.23456,-0.89543c1.07124,0.15332 1.88132,0.52281 2.55384,1.41595c0.16891,0.22669 0.32584,0.46208 0.47012,0.70519c0.522,1.50673 0.69156,3.68877 0.85867,5.29087l-0.03612,0.1497c-2.44386,0.66841 -3.34964,2.06845 -3.67974,4.46421c-0.65315,4.73916 0.39281,45.49538 -0.53397,46.922c0.46996,0.79908 0.36474,3.70601 0.36425,4.77921c-4.07912,-0.09521 -9.83798,-0.88772 -13.71273,-0.01904c-0.83076,0.18614 -3.82321,1.72866 -5.00788,2.16628c-1.22784,0.56007 -3.50017,1.90906 -4.44172,2.27036c-0.05532,-1.56057 -0.26117,-3.11212 -0.61458,-4.63312l-0.07042,-0.31156l0.03054,-0.15989c-1.71569,0.01511 -3.17843,-0.07419 -4.86622,-0.26001c-0.42005,0.02921 -1.47801,0.06928 -1.82353,0.17876c-0.39215,1.01855 -0.69124,1.0627 -1.71109,1.5668c-1.75771,0.78825 -2.84947,0.66596 -4.77494,0.74737c-10.25327,0.0737 -21.0059,2.1067 -31.30399,2.44221c-1.67285,0.05449 -4.61917,-0.26346 -5.9263,-1.37787c-0.4821,-0.41087 -0.41037,-1.32632 -0.30482,-1.86967c-0.29482,-0.42843 -0.34143,-0.32994 -0.93269,-0.55269l0.69665,-0.11836c-1.40841,-4.77889 -1.9565,-14.20025 -2.51247,-19.4404l-1.56418,-15.30663c-0.47177,-4.44944 -0.99606,-8.8887 -1.23227,-13.35964c-0.15824,-2.99556 -0.08355,-4.5911 2.90774,-5.96684z" id="Path-1-27" fill="#fdf1c2"/><path d="M946.17997,517.65565c1.07124,0.15332 1.88132,0.52281 2.55384,1.41595c0.16891,0.22669 0.32584,0.46208 0.47012,0.70519c0.522,1.50673 0.69156,3.68877 0.85867,5.29087l-0.03612,0.1497c-2.44386,0.66841 -3.34964,2.06845 -3.67974,4.46421c-0.65315,4.73916 0.39281,45.49538 -0.53397,46.922c-0.44944,0.26297 -2.05253,1.23835 -2.43927,1.36244c-0.63197,-0.03743 -1.03184,0.21717 -1.641,0.46553l-0.2848,-0.22423c3.58437,-1.78529 2.39364,-6.40381 2.09521,-9.80253l-0.83881,-9.32567l-3.01001,-31.79578l-0.11424,-0.17663c-0.06041,-2.3759 -1.37295,-3.83749 -3.56484,-4.68253c2.45436,-0.01084 8.05154,-3.3347 10.16496,-4.76855z" id="Path-1-28" fill="#81613a"/><path d="M946.17997,517.65565c1.07124,0.15332 1.88132,0.52281 2.55384,1.41595c0.16891,0.22669 0.32584,0.46208 0.47012,0.70519c-2.77757,1.52971 -6.50607,3.12755 -8.95534,5.13558c-0.48966,0.40151 -0.5215,1.72669 -0.55449,2.37098l-0.11424,-0.17663c-0.06041,-2.3759 -1.37295,-3.83749 -3.56484,-4.68253c2.45436,-0.01084 8.05154,-3.3347 10.16496,-4.76855z" id="Path-1-29" fill="#f6d39d"/><path d="M869.01208,527.37889c1.88969,-1.15692 6.97111,-3.59307 9.1039,-4.23719c0.94058,-0.28414 4.93187,-0.57633 6.16973,-0.68352l10.63164,-0.92745c11.66529,-1.11589 23.34191,-2.10916 35.02805,-2.97964c4.11359,-0.30499 12.49047,-1.14183 16.23456,-0.89543c-2.11343,1.43385 -7.7106,4.75771 -10.16496,4.76855c-3.26625,-0.22718 -11.40987,0.59537 -14.95174,0.83322c-12.38164,0.8603 -24.75474,1.83815 -37.11767,2.93336c-3.69271,0.35095 -7.38837,0.66989 -11.08666,0.95683c-0.55794,0.03792 -3.38509,0.261 -3.84684,0.23129z" id="Path-1-30" fill="#639982"/><path d="M871.41326,581.4524c0.815,0.56271 2.6479,1.90841 3.52839,1.97029c4.7129,0.33109 10.67761,-0.45962 15.39937,-0.84422l25.32943,-1.96389c-0.39215,1.01855 -0.69124,1.0627 -1.71109,1.5668c-1.75771,0.78825 -2.84947,0.66596 -4.77494,0.74737c-10.25327,0.0737 -21.0059,2.1067 -31.30399,2.44221c-1.67285,0.05449 -4.61917,-0.26346 -5.9263,-1.37787c-0.4821,-0.41087 -0.41037,-1.32632 -0.30482,-1.86967c-0.29482,-0.42843 -0.34143,-0.32994 -0.93269,-0.55269z" id="Path-1-31" fill="url(#color-1)"/><path d="M943.37351,577.96603c0.38674,-0.12409 1.98982,-1.09947 2.43927,-1.36244c0.46996,0.79908 0.36474,3.70601 0.36425,4.77921c-4.07912,-0.09521 -9.83798,-0.88772 -13.71273,-0.01904c-0.83076,0.18614 -3.82321,1.72866 -5.00788,2.16628c-1.22784,0.56007 -3.50017,1.90906 -4.44172,2.27036c-0.05532,-1.56057 -0.26117,-3.11212 -0.61458,-4.63312l-0.07042,-0.31156l0.03054,-0.15989c6.21668,-0.80188 12.69747,-0.7761 18.9015,-1.81434c0.78628,-0.13165 1.45962,-0.46585 2.11178,-0.91546z" id="Path-1-32" fill="#ffffff"/><path d="M941.4477,578.20732l0.2848,0.22423c0.60916,-0.24836 1.00903,-0.50296 1.641,-0.46553c-0.65216,0.44961 -1.32551,0.78381 -2.11178,0.91546c-6.20404,1.03824 -12.68483,1.01248 -18.9015,1.81434c-1.71569,0.01511 -3.17843,-0.07419 -4.86622,-0.26001c1.04809,-0.24048 4.79563,-0.38919 6.01346,-0.51313c5.86458,-0.59718 12.17284,-0.61113 17.94024,-1.71536z" id="Path-1-33" fill="#ae6633"/><path d="M928.52124,526.5744c4.18286,-0.24705 7.02708,-1.04481 7.46059,4.09881c1.13132,13.42038 2.76493,26.81121 3.66268,40.24867c0.13903,2.08306 -0.85375,3.71339 -3.00936,4.07436c-5.51625,0.80991 -11.15774,0.96159 -16.72324,1.40512l-38.88212,3.09701c-3.32665,0.20043 -6.45124,0.75952 -6.98998,-3.54136c-0.54416,-4.34455 -0.95666,-8.70699 -1.41054,-13.06237l-2.61146,-25.66069c-0.25312,-2.70338 -0.79596,-5.66234 2.68335,-6.22701c2.043,-0.33158 4.01839,-0.46291 6.07583,-0.63444l9.26888,-0.80171c13.47718,-1.18795 26.97027,-2.1868 40.47535,-2.99639z" id="Path-1-34" fill="#639982"/><path d="M901.77946,533.46737c4.79546,-0.48096 11.28381,-0.27381 14.19862,4.20863c1.2083,1.87147 1.61704,4.14872 1.13493,6.32354c-0.68253,2.97423 -2.76313,4.11031 -5.17121,5.55433c2.08077,0.8219 3.75048,0.87442 5.7871,2.19829c4.63428,3.01198 5.52478,9.31188 2.13132,13.62656c-3.01921,3.83914 -8.39215,4.87869 -13.07632,5.39379c-3.08323,0.31632 -6.16874,0.60866 -9.25656,0.87706c-1.96224,0.17777 -5.88263,0.81796 -7.49654,-0.15053c-0.44911,-0.27151 -0.74606,-0.73638 -0.80351,-1.25788c-0.20634,-1.77987 3.53923,-2.00344 3.39511,-3.99852c-0.12032,-1.66645 -0.293,-3.33092 -0.45289,-4.99392l-0.91776,-9.54464c-0.37902,-3.89314 -0.69862,-7.89856 -1.32534,-11.74933c-0.27806,-1.70765 -3.75788,-0.89429 -4.36523,-3.12951c0.21028,-0.91776 1.09505,-1.49245 1.8283,-2.07337c4.39002,-0.63345 9.92203,-0.93303 14.39002,-1.28447z" id="Path-1-35" fill="#fdf1c2"/><path d="M903.60629,553.65908c8.39281,-0.81648 10.87803,7.93007 4.86408,11.30958c-1.96799,0.6955 -4.41382,0.80729 -6.49655,0.92153c-0.37788,-3.90217 -0.89183,-8.0911 -1.14855,-11.97373c0.79497,-0.13723 1.95108,-0.19271 2.78102,-0.25739z" id="Path-1-36" fill="#639982"/><path d="M901.1667,538.55797c4.26608,-0.50263 7.94796,1.24277 6.99047,6.46652c-0.2564,1.39822 -1.45273,2.31845 -2.65282,2.99212c-1.88706,0.72324 -3.26083,0.78841 -5.2894,0.9757c-0.42482,-2.47768 -0.79744,-7.64921 -1.06189,-10.31057z" id="Path-1-37" fill="#639982"/><path d="M950.06259,525.06767c2.95124,-0.88313 10.13214,-3.26477 12.86556,-3.41874c2.55729,-0.14412 8.05581,0.15298 10.80089,0.21848c9.15561,0.22177 18.30859,0.52594 27.45829,0.91234l14.57813,0.46012c1.891,0.06123 6.25738,0.11326 7.93172,0.48342c1.28694,0.66382 1.8434,1.12984 2.54267,2.40873l0.09521,1.17302l-0.06074,3.01674c-2.71011,0.10883 -4.56172,1.16694 -4.88673,4.04891c-0.30696,2.72898 -0.26428,5.5238 -0.37754,8.26953c-0.25279,5.51033 -0.47603,11.02199 -0.66645,16.53479l-0.58273,13.59503c-0.15266,3.54859 -0.59587,8.19763 0.31188,11.59126c-2.28332,-0.1213 -3.9954,2.69106 -6.93368,2.80056c-1.51346,0.2866 -2.31779,0.33963 -3.8608,0.34389c-8.81483,0.02511 -17.79382,-0.71455 -26.59388,-0.62262c-6.10013,-0.90135 -30.5297,-0.00262 -33.99703,-1.8736c-1.43713,-0.77544 -2.07862,-2.12852 -2.51035,-3.62673c0.00049,-1.0732 0.10572,-3.98014 -0.36425,-4.77921c0.92679,-1.42663 -0.11918,-42.18284 0.53397,-46.922c0.3301,-2.39576 1.23588,-3.79579 3.67974,-4.46421z" id="Path-1-38" fill="#fdf1c2"/><path d="M1023.69716,523.72328c1.28694,0.66382 1.8434,1.12984 2.54267,2.40873l0.09521,1.17302l-0.06074,3.01674c-2.71011,0.10883 -4.56172,1.16694 -4.88673,4.04891c-0.30696,2.72898 -0.26428,5.5238 -0.37754,8.26953c-0.25279,5.51033 -0.47603,11.02199 -0.66645,16.53479l-0.58273,13.59503c-0.15266,3.54859 -0.59587,8.19763 0.31188,11.59126c-2.28332,-0.1213 -3.9954,2.69106 -6.93368,2.80056c2.57059,-1.62327 2.33093,-3.48621 2.41465,-6.23654c0.04104,-1.33963 0.03612,-2.69386 0.05253,-4.0348l0.14609,-12.15479c0.10998,-10.08404 0.52364,-20.97651 0.36113,-30.96174c-0.23309,-3.43106 0.23801,-3.9235 -2.4327,-6.44452c2.08142,-0.33092 8.58831,-2.34586 10.01641,-3.60621z" id="Path-1-39" fill="#ae6633"/><path d="M1023.69716,523.72328c1.28694,0.66382 1.8434,1.12984 2.54267,2.40873c-2.18319,0.58913 -4.64379,1.8255 -6.80729,2.57961c-3.44057,1.19944 -3.03185,2.02298 -3.3191,5.06238c-0.23309,-3.43106 0.23801,-3.9235 -2.4327,-6.44452c2.08142,-0.33092 8.58831,-2.34586 10.01641,-3.60621z" id="Path-1-40" fill="#f6d39d"/><path d="M950.06259,525.06767c2.95124,-0.88313 10.13214,-3.26477 12.86556,-3.41874c2.55729,-0.14412 8.05581,0.15298 10.80089,0.21848c9.15561,0.22177 18.30859,0.52594 27.45829,0.91234l14.57813,0.46012c1.891,0.06123 6.25738,0.11326 7.93172,0.48342c-1.4281,1.26034 -7.93499,3.27527 -10.01641,3.60621c-2.35226,-0.46241 -9.65036,-0.46274 -12.35883,-0.56419l-36.86341,-1.17137c-3.3045,-0.10439 -6.6456,-0.06222 -9.95272,-0.17908c-1.23719,-0.04383 -3.31221,-0.00459 -4.47932,-0.19747z" id="Path-1-41" fill="#f4aa2b"/><path d="M963.61036,582.9785c-3.02363,0.07469 -11.0801,0.33519 -13.30663,-1.67909c-1.53742,-1.39084 -1.17482,-6.38247 -1.17794,-8.52774l-0.00099,-26.2554c-0.00427,-4.42153 -0.09323,-9.17449 0.12426,-13.62113c0.07091,-1.45026 1.12787,-3.74934 2.75886,-3.89822c4.29087,-0.3915 8.88246,-0.22243 13.22406,-0.14774l25.05252,0.64577c4.59783,0.06123 9.19238,0.19912 13.78529,0.41349c9.14313,0.4583 8.47997,0.55007 8.45535,9.40298c-0.0279,4.58453 -0.08536,9.16857 -0.17728,13.75229l-0.19863,16.58503c-0.02462,3.59175 -0.01642,7.20387 -0.13296,10.79366c-0.03775,1.20896 -0.26263,1.97522 -1.1786,2.79333c-0.28398,0.25098 -0.57288,0.4959 -0.86671,0.73457c-2.83651,0.58241 -6.3805,0.19796 -9.28759,0.08896c-0.76658,-0.02872 -2.12573,-0.1873 -2.82502,-0.13476c-2.24229,0.20913 -4.63066,0.16743 -6.84339,-0.2651c-1.17695,-0.57797 -1.91399,-0.98589 -3.0302,-1.67514c-0.5417,0.45666 -4.38444,0.26806 -5.39724,0.33519c0.78464,0.06516 1.63986,0.01346 2.21437,0.49606c-0.27905,0.72292 -1.82206,0.59833 -2.53775,0.66038c-2.54958,0.04415 -8.76296,-0.07994 -11.07764,-0.39363c-2.31713,0.3764 -5.26002,0.26707 -7.57616,-0.10374z" id="Path-1-42" fill="#fdf1c2"/><path d="M969.1752,557.51758l0.37689,-0.17088c1.56386,0.78381 7.77494,3.76248 8.65314,4.87278l0.02413,0.34012c1.94123,-0.5412 2.79974,-0.69846 4.69796,-0.23293c0.15923,-0.28956 0.47111,-0.64675 0.79776,-0.72472c3.18779,-0.76181 5.34799,-2.07764 8.08766,-3.85374l0.43007,0.14347c3.11884,3.21142 4.98359,4.40118 6.71537,8.72817c8.87393,-0.17399 8.34701,11.46027 2.3736,15.85209c-1.13263,0.60703 -2.1914,1.23309 -3.47341,1.45256c-2.24229,0.20913 -4.63066,0.16743 -6.84339,-0.2651c-1.17695,-0.57797 -1.91399,-0.98589 -3.0302,-1.67514c-0.5417,0.45666 -4.38444,0.26806 -5.39724,0.33519c0.78464,0.06516 1.63986,0.01346 2.21437,0.49606c-0.27905,0.72292 -1.82206,0.59833 -2.53775,0.66038c-2.54958,0.04415 -8.76296,-0.07994 -11.07764,-0.39363c-2.31713,0.3764 -5.26002,0.26707 -7.57616,-0.10374c-1.31156,-0.59028 -2.11802,-1.06812 -3.36146,-1.81434c-5.14248,-4.51707 -6.88345,-14.96355 2.58601,-14.94155c0.86507,-1.88821 2.05532,-3.60997 3.51592,-5.0865c0.64577,-0.66399 3.00443,-2.53595 3.21537,-3.0082z" id="Path-1-43" fill="#8d5329"/><path d="M978.22936,562.5596c1.94123,-0.5412 2.79974,-0.69846 4.69796,-0.23293c1.891,0.80334 3.20913,1.97668 3.96914,3.94123c2.1602,5.5806 -1.53644,13.94697 -8.56828,10.58207c-4.11129,-1.96734 -4.95256,-8.09339 -2.98703,-11.80614c0.58569,-1.11146 1.75213,-1.91924 2.88821,-2.48424z" id="Path-1-44" fill="#fecb6c"/><path d="M986.21524,580.0064c0.68942,0.96651 0.87656,1.18204 1.76953,1.97784c-0.5417,0.45666 -4.38444,0.26806 -5.39724,0.33519c0.78464,0.06516 1.63986,0.01346 2.21437,0.49606c-0.27905,0.72292 -1.82206,0.59833 -2.53775,0.66038c-2.54958,0.04415 -8.76296,-0.07994 -11.07764,-0.39363c0.86966,-0.41711 1.47275,-0.88657 2.2541,-1.44206l1.20896,-0.90233c5.07042,1.0394 6.73801,0.88543 11.56566,-0.73145z" id="Path-1-45" fill="#fdf1c2"/><path d="M973.44062,581.64019c0.70912,0.39987 7.96503,0.68352 9.14691,0.67925c0.78464,0.06516 1.63986,0.01346 2.21437,0.49606c-0.27905,0.72292 -1.82206,0.59833 -2.53775,0.66038c-2.54958,0.04415 -8.76296,-0.07994 -11.07764,-0.39363c0.86966,-0.41711 1.47275,-0.88657 2.2541,-1.44206z" id="Path-1-46" fill="#f4aa2b"/><path d="M998.59212,570.50674c4.72587,-0.26083 4.19074,4.81467 2.60013,7.69353c-1.09816,1.98851 -2.0568,2.81976 -4.15955,3.48703c-6.49212,0.84422 -4.20551,-9.16481 1.55942,-11.18055z" id="Path-1-47" fill="#fecb6c"/><path d="M961.85757,569.84604c4.94829,0.05532 9.97832,9.56894 4.16989,11.30039c-5.37623,-0.04891 -10.01461,-9.60965 -4.16989,-11.30039z" id="Path-1-48" fill="#fecb6c"/><path d="M965.62808,546.02826c-3.41136,-1.782 -5.50623,-5.53857 -3.46093,-9.174c0.83995,-1.49278 2.25624,-2.57501 3.91726,-2.99343c1.59373,-0.39314 3.27873,-0.13083 4.67761,0.72801c0.67351,0.40906 1.38903,1.05876 1.93844,1.63181c5.79399,-2.87443 10.36802,-2.67777 16.07386,0.26379c1.70223,-1.50312 3.0581,-2.57321 5.54334,-2.45667c1.71536,0.06928 3.32238,0.86163 4.42054,2.18072c2.91037,3.51346 1.23769,8.54021 -3.0023,10.23063c0.59422,3.72948 0.32337,6.71913 -1.85982,10.04908c-0.36442,0.55663 -1.00459,1.14166 -1.63329,1.40348l-0.43007,-0.14347c-2.73965,1.7761 -4.89987,3.09192 -8.08766,3.85374c-0.32665,0.07797 -0.63854,0.43516 -0.79776,0.72472c-1.89823,-0.46553 -2.75673,-0.30828 -4.69796,0.23293l-0.02413,-0.34012c-0.8782,-1.11031 -7.0893,-4.08897 -8.65314,-4.87278l-0.37689,0.17088c-1.02545,-0.4066 -2.28037,-2.37705 -2.71684,-3.4084c-1.15233,-2.7234 -1.25361,-5.20633 -0.83027,-8.08092z" id="Path-1-49" fill="#ae6633"/><path d="M975.13333,548.45488c4.49014,-2.30352 6.79924,-1.74836 10.84388,0.70191l0.59587,0.64445c0.80761,1.68418 1.10636,3.43057 0.56303,5.25575c-0.49409,1.68072 -1.65791,3.08372 -3.21898,3.8782c-4.53513,2.26641 -10.86343,-0.86605 -10.47898,-6.26182c0.0934,-1.31089 0.29761,-1.88263 0.72882,-3.09767z" id="Path-1-50" fill="#fdf1c2"/><path d="M980.24134,555.14233c0.09849,-3.01511 -2.65331,-1.31615 -3.00509,-3.86671c0.72127,-1.65544 5.01477,-1.19041 5.66152,0.21241c-0.02298,1.02511 -1.29842,1.7152 -2.13854,2.5975l-0.34127,0.1131c-0.05679,0.30942 -0.11047,0.63804 -0.17663,0.9437z" id="Path-1-51" fill="#8d5329"/><path d="M980.24134,555.14233c0.06615,-0.30564 0.11983,-0.63428 0.17663,-0.9437l0.34127,-0.1131c0.17236,0.91464 0.02249,0.87328 0.53972,1.489c1.44616,0.61589 2.08142,-0.84258 3.09094,-0.83847c0.33322,2.58684 -7.27922,2.55237 -7.93417,0.1456l0.06795,-0.40183l0.26149,-0.04219l0.185,0.14264c0.93582,0.70962 2.21192,1.47193 3.27117,0.56205z" id="Path-1-52" fill="#81613a"/><path d="M966.96918,536.72146c1.63936,-0.087 1.94009,0.07222 3.17614,1.1085c-1.37886,1.43828 -2.08043,2.53611 -3.15414,4.22242c-0.13772,0.23129 -0.26034,0.3283 -0.44879,0.52839c-1.87525,-0.31188 -2.61785,-4.31664 0.42679,-5.85932z" id="Path-1-53" fill="#fecb6c"/><path d="M993.67092,536.84606c3.283,0.31894 4.32206,4.40232 1.69403,6.15676c-1.23769,-1.87344 -2.30466,-3.22275 -3.71142,-4.98226c0.82239,-0.61261 1.02594,-0.78332 2.0174,-1.1745z" id="Path-1-54" fill="#fecb6c"/><path d="M985.97722,549.15678c-0.22324,-7.4391 6.70223,1.24262 0.59587,0.64445z" id="Path-1-55" fill="#2d2822"/><path d="M974.16699,549.57569c-4.80138,-0.62574 0.10933,-7.00492 0.96634,-1.12082z" id="Path-1-56" fill="#2d2822"/><path d="M963.61036,582.9785c-3.02363,0.07469 -11.0801,0.33519 -13.30663,-1.67909c-1.53742,-1.39084 -1.17482,-6.38247 -1.17794,-8.52774l-0.00099,-26.2554c-0.00427,-4.42153 -0.09323,-9.17449 0.12426,-13.62113c0.07091,-1.45026 1.12787,-3.74934 2.75886,-3.89822c4.29087,-0.3915 8.88246,-0.22243 13.22406,-0.14774l25.05252,0.64577c4.59783,0.06123 9.19238,0.19912 13.78529,0.41349c9.14313,0.4583 8.47997,0.55007 8.45535,9.40298c-0.0279,4.58453 -0.08536,9.16857 -0.17728,13.75229l-0.19863,16.58503c-0.02462,3.59175 -0.01642,7.20387 -0.13296,10.79366c-0.03775,1.20896 -0.26263,1.97522 -1.1786,2.79333c-0.28398,0.25098 -0.57288,0.4959 -0.86671,0.73457c-2.83651,0.58241 -6.3805,0.19796 -9.28759,0.08896c-0.76658,-0.02872 -2.12573,-0.1873 -2.82502,-0.13476c1.28201,-0.21947 2.34078,-0.84553 3.47341,-1.45256c0.90447,0.47718 4.18089,0.4199 5.27412,0.23966c1.9304,-0.31763 2.39002,-0.52758 3.50952,-1.98342c0.30203,-1.6085 0.29547,-4.77823 0.32502,-6.55318c0.04597,-4.22554 0.07059,-8.4514 0.07222,-12.67711l0.05253,-16.7733c-0.01149,-2.94173 -0.00328,-5.8544 -0.15594,-8.7953c-0.00657,-2.50673 -2.02396,-3.79021 -4.38607,-3.94763c-3.15824,-0.21044 -6.43467,-0.23325 -9.63723,-0.34717c-7.30302,-0.29875 -14.60932,-0.51198 -21.91857,-0.63969l-11.53907,-0.28233c-3.04694,-0.07074 -9.65266,-0.64478 -11.00147,2.16251c-1.02199,2.12689 -0.68369,9.92728 -0.68352,12.38624l0.00591,17.0059c0.00394,5.41103 -0.13263,10.89182 0.2454,16.27347c0.18122,2.58126 7.56549,3.24918 8.75427,2.6236c1.24343,0.74623 2.0499,1.22406 3.36146,1.81434z" id="Path-1-57" fill="#f4aa2b"/><path d="M954.22887,551.90071l0.22997,0.18992c0.64675,1.34718 0.30023,9.78907 -0.81057,11.06303l-0.16054,-0.29892c0.14806,-2.24803 0.44665,-4.55498 0.61703,-6.82452c0.0998,-1.32715 -0.27298,-3.31008 0.12409,-4.12951z" id="Path-1-58" fill="#fdf1c2"/><path d="M987.98477,581.98424c1.11621,0.68927 1.85325,1.09717 3.0302,1.67514c-1.84668,0.38181 -6.7564,0.09997 -8.75081,-0.18352c0.71569,-0.06205 2.2587,0.06254 2.53775,-0.66038c-0.57453,-0.4826 -1.42974,-0.43089 -2.21437,-0.49606c1.0128,-0.06713 4.85555,0.12147 5.39724,-0.33519z" id="Path-1-59" fill="#fecb6c"/><path d="M927.45641,583.53005c1.18467,-0.43763 4.17712,-1.98014 5.00788,-2.16628c3.87475,-0.86869 9.63362,-0.07617 13.71273,0.01904c0.43171,1.49819 1.0732,2.85127 2.51035,3.62673c3.46733,1.87098 27.8969,0.97226 33.99703,1.8736c-0.53676,0.01674 -1.03414,-0.00919 -1.54137,0.13624c1.74983,0.33158 4.72751,0.12491 6.52987,0.39035l-0.00164,0.39133c-1.04564,1.01658 -3.9954,0.26954 -5.63361,0.56434l-0.00657,0.05007c0.46947,0.16562 0.77151,0.22949 1.25082,0.33536c0.81911,0.13673 1.41004,0.04268 1.94681,0.44321l0.01149,0.58224c0.64675,0.34914 2.2193,1.09028 2.53119,1.63001l0.27577,0.38361c-0.35128,9.40347 -0.23309,19.62836 -0.32502,29.11292l-0.11162,12.55909c-0.02627,2.68713 -0.3956,8.66217 0.68287,10.94057c-1.03742,1.00295 -4.72587,3.18614 -6.15069,4.11194c-0.72882,0.36442 -1.49097,0.80433 -2.27889,0.57616c-0.01412,0 -0.02807,0.00164 -0.04219,0.00164c-1.4089,0.40874 -2.87885,0.46291 -4.33667,0.42351c-4.66924,-0.12311 -9.31845,-0.5614 -13.97274,-0.8979l-22.69927,-1.68089l-12.02527,-0.97177c-3.25821,-0.28562 -8.24967,-0.07222 -9.90528,-3.26821c-0.46716,-2.23079 -0.59372,-3.11227 -0.46126,-5.36933c0.52052,-10.03118 1.31402,-20.1231 1.86917,-30.16413c0.38264,-5.28726 0.50017,-10.60571 0.94731,-15.88623c0.21668,-2.55778 1.09882,-4.5256 3.7367,-5.18532l0.04039,-0.29153c0.94156,-0.36129 3.21389,-1.71027 4.44172,-2.27036z" id="Path-1-60" fill="#fdf1c2"/><path d="M987.77138,591.40627l0.27577,0.38361c-0.35128,9.40347 -0.23309,19.62836 -0.32502,29.11292l-0.11162,12.55909c-0.02627,2.68713 -0.3956,8.66217 0.68287,10.94057c-1.03742,1.00295 -4.72587,3.18614 -6.15069,4.11194c-0.72882,0.36442 -1.49097,0.80433 -2.27889,0.57616c1.64363,-1.11621 1.86195,-1.78923 2.11966,-3.71963c0.3004,-2.25542 0.3677,-4.52396 0.49573,-6.79415c0.19206,-3.55056 0.40709,-7.09947 0.64839,-10.64838c0.69107,-10.17892 1.70879,-21.67595 1.96159,-31.77444c0.14774,-0.78464 0.12311,-1.72358 0.13624,-2.53464c0.86835,-1.08256 1.43138,-1.43614 2.54596,-2.21306z" id="Path-1-61" fill="#8d5329"/><path d="M927.45641,583.53005c1.18467,-0.43763 4.17712,-1.98014 5.00788,-2.16628c3.87475,-0.86869 9.63362,-0.07617 13.71273,0.01904c0.43171,1.49819 1.0732,2.85127 2.51035,3.62673c3.46733,1.87098 27.8969,0.97226 33.99703,1.8736c-0.53676,0.01674 -1.03414,-0.00919 -1.54137,0.13624c1.74983,0.33158 4.72751,0.12491 6.52987,0.39035l-0.00164,0.39133c-1.04564,1.01658 -3.9954,0.26954 -5.63361,0.56434l-0.00657,0.05007c0.46947,0.16562 0.77151,0.22949 1.25082,0.33536c0.81911,0.13673 1.41004,0.04268 1.94681,0.44321l0.01149,0.58224c-1.26887,0.34406 -2.37525,0.30959 -3.68023,0.25246c-3.71372,-0.61359 -9.43844,-0.65463 -13.44812,-1.13033c-1.28201,0.06205 -5.09865,-0.33421 -6.58962,-0.42958c-1.71914,-0.10998 -4.79546,-0.17597 -6.3805,-0.38756c-1.67728,-0.62902 -1.57173,-0.40037 -3.03709,-0.75492l-0.22374,-0.05532c-2.46963,-0.4565 -5.30154,-2.34307 -7.10292,-2.47013c-5.7889,-0.40857 -12.03332,0.04449 -17.82123,-0.45158l-0.01281,-0.16678c0.46126,0.08306 0.28924,0.09964 0.7303,-0.02561c-0.05466,-0.22669 -0.12344,-0.41546 -0.21782,-0.62688z" id="Path-1-62" fill="#8d5329"/><path d="M951.88088,587.27101c4.70896,-0.20666 10.55531,0.34504 15.30876,0.56648c2.30483,0.10735 5.50837,0.07584 7.73933,0.35834c2.65446,0.08716 5.94993,0.57928 8.35291,0.55499c0.81911,0.13673 1.41004,0.04268 1.94681,0.44321l0.01149,0.58224c-1.26887,0.34406 -2.37525,0.30959 -3.68023,0.25246c-3.71372,-0.61359 -9.43844,-0.65463 -13.44812,-1.13033c-1.28201,0.06205 -5.09865,-0.33421 -6.58962,-0.42958c-1.71914,-0.10998 -4.79546,-0.17597 -6.3805,-0.38756c-1.67728,-0.62902 -1.57173,-0.40037 -3.03709,-0.75492z" id="Path-1-63" fill="#ae6633"/><path d="M923.01467,585.80039c0.94156,-0.36129 3.21389,-1.71027 4.44172,-2.27036c0.09439,0.21142 0.16317,0.4002 0.21782,0.62688c-0.44107,0.12525 -0.26904,0.10866 -0.7303,0.02561l0.01281,0.16678c5.78792,0.49606 12.03233,0.04301 17.82123,0.45158c1.80138,0.12705 4.63329,2.01362 7.10292,2.47013l0.22374,0.05532c1.46537,0.35457 1.35982,0.1259 3.03709,0.75492c-2.43335,0.01871 -5.3736,-0.2907 -7.86195,-0.46291l-13.85882,-0.95601c-2.46897,-0.16612 -8.49704,-0.23014 -10.44664,-0.57042z" id="Path-1-64" fill="#d88a2f"/><path d="M985.24019,589.77626c0.64675,0.34914 2.2193,1.09028 2.53119,1.63001c-1.11458,0.77692 -1.67761,1.1305 -2.54596,2.21306c-0.01313,0.81106 0.01149,1.75 -0.13624,2.53464c-0.06074,-0.73047 -0.03119,-1.82863 -0.03283,-2.58765c-0.21011,-0.3938 -0.42679,-0.78464 -0.64839,-1.17252c-0.75181,-1.3063 -1.37393,-1.96947 -2.84799,-2.36507c1.30499,0.05713 2.41136,0.0916 3.68023,-0.25246z" id="Path-1-65" fill="#f6d39d"/><path d="M925.85266,590.07502c2.36868,-0.06993 6.02134,0.25033 8.46668,0.40183c4.97029,0.29875 9.93894,0.62311 14.90594,0.97325c8.97767,0.63017 18.48981,0.93451 27.36588,1.97127c0.93138,0.10883 2.03512,0.27527 2.89413,0.65939c0.63986,0.28726 1.25296,1.14741 1.46192,1.80236c0.39445,1.23605 -2.15217,41.694 -2.5737,45.88475c-0.07338,0.72882 -0.13542,1.53315 -0.50558,2.18155c-0.53841,0.94387 -1.39527,1.27052 -2.3974,1.53152c-2.91727,0.10177 -6.82699,-0.22653 -9.78989,-0.43664l-13.63739,-1.00131c-6.49113,-0.45469 -12.97865,-0.95864 -19.46207,-1.51346c-2.71898,-0.2413 -5.46996,-0.42514 -8.17596,-0.76166c-4.07403,-0.50558 -4.33601,-1.87623 -4.18171,-5.64018c0.16645,-4.06434 0.46716,-8.07616 0.70075,-12.11588c0.34242,-6.52987 0.72801,-13.05646 1.15677,-19.57977c0.20125,-3.20748 0.28611,-9.63558 1.33076,-12.94911c0.22997,-0.72932 1.64757,-1.24869 2.4409,-1.40792z" id="Path-1-66" fill="#da3b28"/><path d="M926.3543,624.59453c11.18467,3.74917 25.07353,5.49902 36.86965,4.52396c3.4025,-0.2807 6.86523,-1.28857 9.93943,-1.54793c-0.42055,1.72193 -0.67581,2.48194 -1.58634,4.02002c-0.95239,3.60145 -4.45059,7.49999 -7.7024,9.25968c-3.24343,1.7564 -5.70797,-0.45469 -8.74639,-1.43138l-0.23522,-0.07387c-6.11491,1.82535 -6.38854,1.5824 -12.1845,-0.88148c-2.71488,0.84373 -4.57551,1.57092 -7.46076,0.37919c-3.53775,-1.46258 -5.73506,-5.97669 -7.13739,-9.33026c-1.01707,-1.66776 -1.2779,-3.06139 -1.75607,-4.91792z" id="Path-1-67" fill="#2a454a"/><path d="M926.3543,624.59453c11.18467,3.74917 25.07353,5.49902 36.86965,4.52396c3.4025,-0.2807 6.86523,-1.28857 9.93943,-1.54793c-0.42055,1.72193 -0.67581,2.48194 -1.58634,4.02002c-2.1479,1.12114 -5.75,1.35587 -8.16546,1.53315c-11.8887,0.93402 -23.84815,-0.2889 -35.3012,-3.6113c-1.01707,-1.66776 -1.2779,-3.06139 -1.75607,-4.91792z" id="Path-1-68" fill="#fdf1c2"/><path d="M947.59756,600.847c0.05384,0.11326 0.10768,0.22653 0.16169,0.33979c-0.52347,6.04071 -1.20354,19.29251 -1.79301,24.71929c-4.29842,-0.38904 -10.30515,-1.96323 -14.49326,-3.06467c-1.07616,-0.29218 -2.4386,-0.78791 -3.52035,-1.14905c4.72324,-6.21634 13.94205,-15.33157 19.64493,-20.84536z" id="Path-1-69" fill="#fdf1c2"/><path d="M950.28781,606.66283c1.05712,-0.11491 1.47406,-0.36442 2.36048,-0.95535c2.56074,3.43237 5.08339,6.89264 7.56697,10.38247c1.14527,1.64149 2.55647,3.93303 3.71914,5.4547c0.49064,-0.04268 0.62311,-0.17399 1.00607,0.18713c0.84882,0.80433 2.34718,2.89888 1.74672,4.06434c-0.22636,0.07879 -0.30006,0.13789 -0.5215,0.13624c-2.95502,0.22324 -6.72915,0.34143 -9.50853,0.62705c-2.11392,0.29383 -5.56729,-0.09192 -7.75509,-0.27413c0.13493,-6.15561 0.47686,-12.55088 0.739,-18.71798c0.02298,-0.53676 0.25065,-0.6369 0.64675,-0.90447z" id="Path-1-70" fill="#fdf1c2"/><path d="M950.28781,606.66283c1.71799,6.56763 4.28775,13.3388 6.36934,19.89657c-2.11392,0.29383 -5.56729,-0.09192 -7.75509,-0.27413c0.13493,-6.15561 0.47686,-12.55088 0.739,-18.71798c0.02298,-0.53676 0.25065,-0.6369 0.64675,-0.90447z" id="Path-1-71" fill="#7eb352"/><path d="M963.93439,621.54463c0.49064,-0.04268 0.62311,-0.17399 1.00607,0.18713c0.84882,0.80433 2.34718,2.89888 1.74672,4.06434c-0.22636,0.07879 -0.30006,0.13789 -0.5215,0.13624c-0.62853,-1.64642 -1.35965,-2.88082 -2.23128,-4.38772z" id="Path-1-72" fill="#8d5329"/><path d="M950.01893,595.21175c2.22357,0.38082 10.15282,3.15659 11.46881,4.67006l-0.08142,0.30368c-0.772,0.60735 -1.70896,0.95042 -2.61753,1.35259c-3.90824,1.41004 -5.02905,1.73834 -9.15577,2.10603c-0.02593,-2.88576 0.1914,-5.56139 0.38591,-8.43236z" id="Path-1-73" fill="#7eb352"/><path d="M1013.13905,587.16185c2.93828,-0.10949 4.65036,-2.92186 6.93368,-2.80056c0.48424,0.85079 0.84537,1.36704 1.63821,1.97522l-0.70749,0.42859c0.70912,0.61063 1.13263,1.07239 2.02396,1.35325l0.24623,0.07928c1.11621,0.3503 1.32961,0.17695 2.24064,0.88116l16.02264,0.72161c2.22751,0.0998 5.04268,0.10111 7.20781,0.28316c0.49738,0.08486 1.51182,0.22292 1.94025,0.38148c0.96684,-0.11918 3.79349,0.67892 4.29908,1.39494c2.31943,-0.88558 2.60834,-2.66842 5.5105,-1.90512c-0.12639,0.28004 -0.30696,0.64018 -0.40381,0.92252c-1.10965,0.14938 -1.50033,0.19665 -2.17827,1.10374c-2.29974,0.8544 -3.022,2.32453 -3.04333,4.68828c-0.12147,14.24655 -0.03775,28.49966 -0.05909,42.74784c-0.00164,1.91562 -0.09685,4.87853 0.60243,6.62672c-1.17038,1.06369 -2.9432,2.30302 -4.45503,2.79875l-0.41859,-0.12147c-3.37984,1.00952 -8.91825,0.28562 -12.53282,0.08864l-14.36637,-0.64839c-7.22094,-0.28398 -14.43861,-0.62377 -21.65297,-1.01937c-3.05647,-0.16579 -6.19172,-0.27905 -9.23999,-0.52528c-1.98786,-0.15923 -3.19764,-0.65495 -4.45338,-2.21437c-1.07846,-2.27839 -0.70912,-8.25344 -0.68286,-10.94057l0.11162,-12.55909c0.09192,-9.48457 -0.02627,-19.70945 0.32502,-29.11292l-0.27577,-0.38361c-0.31188,-0.53972 -1.88444,-1.28086 -2.53119,-1.63001l-0.01149,-0.58224c-0.53676,-0.40052 -1.12771,-0.30647 -1.94681,-0.44321c-0.47931,-0.10587 -0.78136,-0.16973 -1.25082,-0.33536l0.00657,-0.05007c1.63821,-0.29482 4.58798,0.45223 5.63361,-0.56434l0.00164,-0.39133c-1.80236,-0.26544 -4.78003,-0.05876 -6.52987,-0.39035c0.50723,-0.14544 1.00459,-0.1195 1.54137,-0.13624c8.80006,-0.09192 17.77904,0.64774 26.59388,0.62262c1.543,-0.00427 2.34734,-0.05728 3.8608,-0.34389z" id="Path-1-74" fill="#fdf1c2"/><path d="M1054.98408,591.85998c2.31943,-0.88558 2.60834,-2.66842 5.5105,-1.90512c-0.12639,0.28004 -0.30696,0.64018 -0.40381,0.92252c-1.10965,0.14938 -1.50033,0.19665 -2.17827,1.10374c-2.29974,0.8544 -3.022,2.32453 -3.04333,4.68828c-0.12147,14.24655 -0.03775,28.49966 -0.05909,42.74784c-0.00164,1.91562 -0.09685,4.87853 0.60243,6.62672c-1.17038,1.06369 -2.9432,2.30302 -4.45503,2.79875l-0.41859,-0.12147c1.34602,-1.11621 1.70223,-1.84997 1.89592,-3.60637c0.22324,-2.02725 0.18713,-4.09061 0.21339,-6.13099c0.03283,-2.94648 0.087,-5.89297 0.16251,-8.83945c0.24786,-10.72717 0.55155,-22.15528 0.51708,-32.84305c0.07551,-1.09816 0.03119,-2.67892 0.03447,-3.81352c0.6369,-0.79415 0.78628,-1.00722 1.6218,-1.62788z" id="Path-1-75" fill="url(#color-2)"/><path d="M1013.13905,587.16185c2.93828,-0.10949 4.65036,-2.92186 6.93368,-2.80056c0.48424,0.85079 0.84537,1.36704 1.63821,1.97522l-0.70749,0.42859c-1.62016,0.47472 -4.68154,0.86474 -5.69599,1.99491c-5.61556,-0.01855 -11.22948,-0.11195 -16.84011,-0.28004c-2.54432,-0.07387 -5.18713,-0.26396 -7.73801,-0.23883c-0.43499,0.00427 -0.64839,0.20371 -0.94714,0.47324l-0.12639,0.03546l-0.89462,0.84963c-0.45962,0.81731 -0.59915,1.24475 -0.71405,2.19042l-0.27577,-0.38361c-0.31188,-0.53972 -1.88444,-1.28086 -2.53119,-1.63001l-0.01149,-0.58224c-0.53676,-0.40052 -1.12771,-0.30647 -1.94681,-0.44321c-0.47931,-0.10587 -0.78136,-0.16973 -1.25082,-0.33536l0.00657,-0.05007c1.63821,-0.29482 4.58798,0.45223 5.63361,-0.56434l0.00164,-0.39133c-1.80236,-0.26544 -4.78003,-0.05876 -6.52987,-0.39035c0.50723,-0.14544 1.00459,-0.1195 1.54137,-0.13624c8.80006,-0.09192 17.77904,0.64774 26.59388,0.62262c1.543,-0.00427 2.34734,-0.05728 3.8608,-0.34389z" id="Path-1-76" fill="#81613a"/><path d="M985.22869,589.19403c0.44977,-0.05778 1.1786,-0.27675 1.63821,-0.39758c0.69107,0.23883 1.2344,0.49901 1.89429,0.80302c-0.45962,0.81731 -0.59915,1.24475 -0.71405,2.19042l-0.27577,-0.38361c-0.31188,-0.53972 -1.88444,-1.28086 -2.53119,-1.63001z" id="Path-1-77" fill="#a37f60"/><path d="M986.86691,588.79645c1.55285,-0.89199 1.07189,-0.35079 2.46553,-0.10177l0.32337,0.05516l-0.89462,0.84963c-0.65988,-0.30401 -1.20322,-0.56419 -1.89429,-0.80302z" id="Path-1-78" fill="#9a7654"/><path d="M989.78221,588.71438c0.29875,-0.26954 0.51215,-0.46898 0.94714,-0.47324c2.55089,-0.02511 5.1937,0.16497 7.73801,0.23883c5.61064,0.16809 11.22455,0.26149 16.84011,0.28004c0.95699,-0.00049 2.065,-0.04563 2.99573,0.10439c-0.07715,0.00788 -0.15431,0.01576 -0.23309,0.0238c-2.67071,-0.10177 -5.82239,1.1131 -8.45535,1.17006c-4.91464,0.10604 -10.06073,-0.52412 -14.9606,-0.9675c-1.11458,-0.10095 -4.09554,-0.01576 -4.87196,-0.3764z" id="Path-1-79" fill="#f6d39d"/><path d="M1021.00347,586.7651c0.70912,0.61063 1.13263,1.07239 2.02396,1.35325l0.24623,0.07928c1.11621,0.3503 1.32961,0.17695 2.24064,0.88116c-2.33585,-0.00444 -4.83748,-0.16448 -7.21109,-0.21438c-0.93073,-0.15004 -2.03874,-0.10489 -2.99573,-0.10439c1.01444,-1.13016 4.07584,-1.52019 5.69599,-1.99491z" id="Path-1-80" fill="#d88a2f"/><path d="M1050.68499,590.46504c0.96684,-0.11918 3.79349,0.67892 4.29908,1.39494c-0.83553,0.62065 -0.9849,0.83371 -1.6218,1.62788c-0.00328,1.1346 0.04104,2.71536 -0.03447,3.81352c-0.29055,-2.60177 0.3365,-5.57469 -2.64281,-6.83633z" id="Path-1-81" fill="#f6d39d"/><path d="M995.25004,591.23769c3.08437,-0.18582 7.30302,0.11145 10.48259,0.20994l22.01574,0.87098c6.3329,0.28463 13.45206,0.28512 19.76853,1.1983c0.56796,0.10095 1.76953,0.91185 1.90906,1.48473c0.80926,3.31418 0.35457,8.30925 0.33487,11.66939c-0.00328,8.79185 -0.14446,17.58206 -0.42351,26.36899c-0.07059,2.60506 0.05417,8.90347 -0.66152,11.15068c-1.08339,0.98325 -1.45765,1.12443 -2.82009,1.48883c-1.80893,0.18878 -4.77183,0.00657 -6.64806,-0.08864c-11.98784,-0.60407 -23.98061,-0.89953 -35.96354,-1.53972c-2.14543,-0.11491 -11.0128,-0.07387 -11.64642,-2.4048c-0.77479,-2.84471 -0.45962,-8.11556 -0.45469,-11.21963l0.10014,-18.04497l0.08536,-9.67498c0.01313,-2.7692 -0.13953,-7.59685 0.58437,-10.08979c1.37229,-1.11327 1.62016,-1.16136 3.33716,-1.37935z" id="Path-1-82" fill="#f4aa2b"/><path d="M999.67058,593.06073c7.17991,-0.23374 14.87031,0.41037 22.09289,0.55844c6.67432,0.13658 13.37983,0.58799 20.07057,0.90807c2.64445,0.12476 5.87984,0.71405 6.24589,4.0627c0.31188,6.6497 0.07715,13.40282 -0.03447,20.06729c-0.06566,4.40578 -0.17564,8.80827 -0.3283,13.21076c-0.07387,2.78234 -0.07222,5.69435 -0.39396,8.45371c-0.19369,1.66448 -0.86507,2.18483 -2.1044,3.13034c-1.31647,0.22324 -1.95338,0.24951 -3.29941,0.27577c-14.32205,-0.03119 -29.2925,-1.11786 -43.65066,-1.83847c-3.16152,-0.15923 -5.01641,-1.50033 -5.05416,-4.84405c-0.08044,-7.35719 0.01149,-14.75541 0.02462,-22.13721l0.00985,-10.80761c0,-2.14872 -0.33979,-8.00394 0.99967,-9.88181c0.75837,-1.0632 3.96914,-1.09192 5.42186,-1.15791z" id="Path-1-83" fill="#fdf1c2"/><path d="M1020.16959,595.27741c1.61195,1.90414 2.51314,3.51281 3.49803,5.82075c2.86606,-1.45765 5.54169,-2.11097 8.69993,-2.61654c-0.15431,1.65134 -0.29383,3.12541 -0.5499,4.76855c2.52462,0.14609 3.9281,0.71897 6.24097,1.76625c-1.31812,0.8979 -1.90414,1.32797 -3.49967,1.70879c6.85981,2.81681 8.34209,11.50361 5.87984,17.75279c-2.47702,6.29021 -7.64773,12.44911 -13.7229,15.5663c-2.81681,1.43466 -6.8237,2.0847 -9.86375,0.81418c-9.51247,-3.97078 -20.35783,-17.87918 -16.5233,-28.62277c1.41333,-3.956 4.11687,-5.73703 7.74294,-7.40151c-1.68418,-0.86178 -2.36211,-1.32632 -3.48818,-2.80696c2.1799,-0.03283 5.69928,-0.27741 7.6543,0.62542c-0.00657,-0.98162 -0.44813,-3.24688 -0.50066,-4.75049c2.0371,0.78956 4.63559,1.56599 6.50525,2.60013l0.23473,-0.087c0.19534,-1.63657 0.95699,-3.66053 1.69238,-5.13788z" id="Path-1-84" fill="#da3b28"/><path d="M1020.16959,595.27741c1.61195,1.90414 2.51314,3.51281 3.49803,5.82075c2.86606,-1.45765 5.54169,-2.11097 8.69993,-2.61654c-0.15431,1.65134 -0.29383,3.12541 -0.5499,4.76855c2.52462,0.14609 3.9281,0.71897 6.24097,1.76625c-1.31812,0.8979 -1.90414,1.32797 -3.49967,1.70879c-0.71405,0 -1.29186,-0.06894 -1.94189,0.20026c0.06074,0.8503 0.82568,0.68122 0.78136,1.97636c0.03283,0.49738 0.12147,0.86343 -0.11983,1.28365c-2.02396,1.04235 -6.79415,-0.83388 -8.51444,-2.10112l-0.68942,-0.32009c-0.34472,1.21799 -1.84832,5.1822 -3.43894,4.75706l-0.42679,-0.65495l-0.44321,-0.84045c-0.92909,-1.60539 -1.02922,-1.891 -1.18023,-3.72784c-0.45469,0.17399 -0.91103,0.34472 -1.36901,0.51215c-2.58371,0.94222 -4.69961,1.52331 -7.47866,1.16053c-4.12508,-0.54005 -1.00459,-2.42777 0.45962,-3.65397l-2.12573,-0.4826c-1.68418,-0.86178 -2.36211,-1.32632 -3.48818,-2.80696c2.1799,-0.03283 5.69928,-0.27741 7.6543,0.62542c-0.00657,-0.98162 -0.44813,-3.24688 -0.50066,-4.75049c2.0371,0.78956 4.63559,1.56599 6.50525,2.60013l0.23473,-0.087c0.19534,-1.63657 0.95699,-3.66053 1.69238,-5.13788z" id="Path-1-85" fill="#6caa49"/><path d="M1011.73722,597.90216c2.0371,0.78956 4.63559,1.56599 6.50525,2.60013l0.23473,-0.087c0.15102,0.51379 0.20026,0.53513 0.57453,0.95042c1.06861,1.18516 1.5069,2.41628 1.84175,3.95929c-1.04727,0.01477 -1.29514,0.07715 -2.12738,-0.52528c-0.10834,-1.80893 -3.14182,-4.67991 -4.94747,-4.6717c-0.48588,0.23966 -0.33979,0.05417 -0.54498,0.47931c0.91432,1.70059 3.44714,0.60243 4.739,5.20847c-1.79743,0.07222 -2.1241,-0.84208 -3.53743,-1.04235c-0.60407,-0.41859 -2.06171,-1.47735 -2.23736,-2.12082c-0.00657,-0.98162 -0.44813,-3.24688 -0.50066,-4.75049z" id="Path-1-86" fill="#7eb352"/><path d="M1024.76414,608.08436l0.0394,-0.38082c-0.3562,-0.37754 -0.84865,-0.7912 -0.93073,-1.2738l0.11162,-0.24951c5.68614,0.50394 4.84405,-1.50853 9.41398,2.7216c0.03283,0.49738 0.12147,0.86343 -0.11983,1.28365c-2.02396,1.04235 -6.79415,-0.83388 -8.51444,-2.10112z" id="Path-1-87" fill="#7eb352"/><path d="M1022.29369,606.74982c0.08536,-1.16053 0.11654,-1.34602 1.59389,-1.48555c0.28233,-0.02627 0.33487,0.07551 0.57288,0.22816l0.06402,0.31845c-0.47111,0.19534 -0.31188,0.14117 -0.84045,0.18549l-0.15266,0.27577c0.19041,0.59093 0.59587,1.14248 0.54333,1.49212c-0.34472,1.21799 -1.84832,5.1822 -3.43894,4.75706l-0.42679,-0.65495c1.42153,-1.30664 1.67597,-3.27478 2.0847,-5.11655z" id="Path-1-88" fill="#699946"/><path d="M1021.24969,605.67465c0.59258,0.39232 0.8109,0.45141 1.04399,1.07518c-0.40874,1.84175 -0.66317,3.80991 -2.0847,5.11655l-0.44321,-0.84045l0.10998,-0.17728c-0.10669,-1.8828 0.5696,-3.5325 1.37393,-5.174z" id="Path-1-89" fill="#7eb352"/><path d="M1014.91844,628.67037c2.16513,0.29383 2.01248,3.7541 0.66973,5.29547c-0.9652,-0.08536 -1.63001,-1.26067 -1.69074,-2.15857c-0.09521,-1.41661 0.14938,-2.05186 1.02101,-3.1369z" id="Path-1-90" fill="#fdf1c2"/><path d="M1029.15021,621.95337c2.17334,1.14084 1.53644,3.78037 0.04268,5.27577c-1.0325,-0.13296 -1.52495,-1.28037 -1.46586,-2.23407c0.09029,-1.44616 0.40052,-2.05515 1.42318,-3.0417z" id="Path-1-91" fill="#fdf1c2"/><path d="M1014.38331,613.57516c2.36376,0.21668 1.68746,3.84603 0.48096,5.27577c-2.2193,-0.75181 -1.87623,-3.72947 -0.48096,-5.27577z" id="Path-1-92" fill="#fdf1c2"/><path d="M1033.881,614.21535c2.10275,0.92417 1.61687,3.83781 0.26592,5.31352c-2.30959,-0.2413 -1.60374,-3.91005 -0.26592,-5.31352z" id="Path-1-93" fill="#fdf1c2"/><path d="M1025.186,629.83747c1.97801,1.05876 1.20322,3.8411 -0.14938,5.13953c-2.30631,-1.10473 -1.53972,-3.77216 0.14938,-5.13953z" id="Path-1-94" fill="#fdf1c2"/><path d="M1024.7116,613.56368c2.10275,1.06861 1.42974,3.71307 0.23801,5.26592c-2.22259,-0.58273 -1.54957,-3.85588 -0.23801,-5.26592z" id="Path-1-95" fill="#fdf1c2"/><path d="M1010.58325,621.51673c2.13887,1.09488 1.9304,3.38477 0.41202,4.97209c-2.02725,-1.38706 -2.18812,-3.29285 -0.41202,-4.97209z" id="Path-1-96" fill="#fdf1c2"/><path d="M1020.6013,621.98455c2.22587,0.89298 1.21307,3.65562 0.09357,5.07879c-2.02233,-0.72554 -1.61195,-3.75574 -0.09357,-5.07879z" id="Path-1-97" fill="#fdf1c2"/><path d="M1006.46802,613.08107c1.77938,0.71734 1.4872,3.7147 0.16743,4.96552c-2.06665,-1.03742 -1.64314,-3.54399 -0.16743,-4.96552z" id="Path-1-98" fill="#fdf1c2"/><path d="M1136.32678,591.38985c0.3677,2.14822 0.25443,6.24639 0.25936,8.59045l0.02134,14.08732l-0.01149,16.70878c-0.00657,2.4803 0.09521,7.17169 -0.20354,9.44353c-0.04268,1.48555 0.03612,2.16513 -0.59587,3.51444c-0.82896,1.54793 -1.95338,1.84175 -3.5325,2.70026c-1.28201,0.9373 -2.07813,1.48227 -3.45535,2.26198c0.11654,-1.17367 -0.32173,-0.11491 -0.96192,-1.30664l-0.58765,0.33487c-0.23638,-10.65823 0.00657,-21.36079 -0.00657,-32.02395c-0.00328,-2.83159 -0.4153,-16.81549 0.09192,-18.2518c0.64347,-1.8155 7.04202,-5.06697 8.98227,-6.05926z" id="Path-1-99" fill="#59745d"/><path d="M1136.39244,640.21994c-0.04268,1.48555 0.03612,2.16513 -0.59587,3.51444c-0.82896,1.54793 -1.95338,1.84175 -3.5325,2.70026c-1.28201,0.9373 -2.07813,1.48227 -3.45535,2.26198c0.11654,-1.17367 -0.32173,-0.11491 -0.96192,-1.30664c1.34274,-0.96849 3.53906,-2.27183 4.98687,-3.19271c1.75311,-1.19008 3.05154,-1.89429 3.55876,-3.97735z" id="Path-1-100" fill="#f6d39d"/><path d="M1132.26408,646.43463c1.57912,-0.8585 2.70355,-1.15233 3.5325,-2.70026l0.32009,0.08536c1.41661,0.37754 3.53578,0.47111 4.33355,1.81057c0.00985,1.56599 -2.15857,2.33749 -3.30105,3.10735c-5.96684,4.01839 -12.5082,3.66053 -19.44516,3.63098c-7.64773,-0.08536 -15.29382,-0.30696 -22.93334,-0.66152c-10.15757,-0.39396 -20.32173,-0.57288 -30.47602,-1.02922c-2.72817,-0.12311 -6.01608,0.04104 -8.57682,-0.83388c-5.17728,1.70716 -19.94582,0.78628 -25.80268,0.57616l-24.89493,-0.96027c-2.92351,-0.12968 -5.84701,-0.22981 -8.77215,-0.29875c-2.52462,-0.0673 -5.08043,0.03775 -7.51969,-0.52364c-2.17498,-0.56303 -4.58634,0.86343 -6.58568,-0.12311c1.42481,-0.9258 5.11326,-3.10899 6.15069,-4.11194c1.25575,1.55942 2.46553,2.05515 4.45338,2.21437c3.04825,0.24623 6.18352,0.35949 9.23999,0.52528c7.21438,0.3956 14.43204,0.73539 21.65297,1.01937l14.36637,0.64839c3.61458,0.19698 9.15298,0.92088 12.53282,-0.08864l0.41859,0.12147c1.51182,-0.49573 3.28463,-1.73506 4.45503,-2.79875c0.84208,1.19173 1.83848,2.37525 3.39462,2.55909c2.19468,0.25936 4.77676,0.29711 7.01247,0.38575c5.55482,0.22653 11.11293,0.40217 16.67103,0.5302l23.58502,0.78628c3.53578,0.14281 15.96356,1.03579 18.5686,0.20191c1.33126,-0.88641 1.70879,-1.50197 2.61491,-2.78234l0.58765,-0.33487c0.64018,1.19173 1.07846,0.13296 0.96192,1.30664c1.37721,-0.77971 2.17334,-1.32469 3.45535,-2.26198z" id="Path-1-101" fill="url(#color-3)"/><path d="M1127.8468,647.38998c0.64018,1.19173 1.07846,0.13296 0.96192,1.30664c-1.18516,0.76329 -2.06171,2.15692 -3.43894,2.28661c-0.39232,-0.18056 -0.43992,-0.16579 -0.72554,-0.47603c1.33126,-0.88641 1.70879,-1.50197 2.61491,-2.78234z" id="Path-1-102" fill="#f4aa2b"/><path d="M1098.32122,587.01231c9.4025,0.00262 18.92152,0.68401 28.32402,1.02036c2.31123,0.08273 4.63887,0.30696 6.91726,0.70897c-1.64314,1.28775 -7.04202,5.11753 -8.92317,5.26198c-3.14839,0.24294 -7.69205,-0.06566 -10.92908,-0.18713l-18.78856,-0.72964c-5.61721,-0.23276 -12.45238,-0.26559 -17.9793,-0.72324c0.21339,-0.0655 0.42514,-0.1277 0.64018,-0.185l-0.0476,-0.16858c-0.24623,-0.03693 -0.74688,-0.05187 -1.00952,-0.06074l-0.30368,-0.00738c0.99967,-0.08109 1.92876,-0.01625 2.71175,-0.55992c-6.20321,-0.02642 -12.62967,-0.41087 -18.84273,-0.50459c0.09685,-0.28233 0.27741,-0.64248 0.40381,-0.92252c2.49672,0.19616 6.60866,-0.10342 9.27117,-0.00788c1.67926,0.06008 5.67629,0.2692 7.15199,0.06911l1.00624,0.00936c0.59258,0.11409 1.00624,0.3265 1.55122,0.47128c1.59061,0.35998 3.39133,0.3608 5.02626,0.34504c2.10275,-0.02035 4.59619,0.22292 6.62015,-0.3104c2.51642,-0.66366 4.72587,-2.19748 7.00262,-3.38329z" id="Path-1-103" fill="#639982"/><path d="M1098.12424,587.14807v0.25411c-5.42843,4.06812 -7.16841,3.78644 -13.53742,3.85736c0.47768,0.14642 1.63493,0.06566 2.22751,0.07698c2.73637,0.0522 5.95534,0.50952 8.5522,-0.57485c0.42186,-0.17614 0.44156,-0.12903 0.92088,-0.05532c-6.14904,2.16726 -11.52823,0.33257 -17.3539,0.67564c-6.20321,-0.02642 -12.62967,-0.41087 -18.84273,-0.50459c0.09685,-0.28233 0.27741,-0.64248 0.40381,-0.92252c2.49672,0.19616 6.60866,-0.10342 9.27117,-0.00788c1.67926,0.06008 5.67629,0.2692 7.15199,0.06911l1.00624,0.00936c0.59258,0.11409 1.00624,0.3265 1.55122,0.47128c1.59061,0.35998 3.39133,0.3608 5.02626,0.34504c2.10275,-0.02035 4.59619,0.22292 6.62015,-0.3104c2.51642,-0.66366 4.72587,-2.19748 7.00262,-3.38329z" id="Path-1-104" fill="#59745d"/><path d="M1060.09077,590.87738c6.21306,0.09373 12.63952,0.47817 18.84273,0.50459c-0.78299,0.54367 -1.71208,0.47882 -2.71175,0.55992l0.30368,0.00738c0.26264,0.00886 0.76329,0.0238 1.00952,0.06074l0.0476,0.16858c-0.21503,0.05728 -0.42679,0.1195 -0.64018,0.185c-2.00098,0.10095 -5.20354,-0.06648 -7.24393,-0.12853c-3.92646,-0.14461 -7.8562,-0.22915 -11.78594,-0.25394c0.67794,-0.90709 1.06861,-0.95437 2.17827,-1.10374z" id="Path-1-105" fill="#6e8d71"/><path d="M1067.24441,645.17396c-9.5256,-0.46619 -8.83945,0.32009 -8.78857,-9.02003l-0.0082,-11.42974l-0.01477,-16.34273c-0.00164,-2.84636 -0.04268,-5.79777 0.05089,-8.63099c0.11326,-0.99475 0.16579,-2.61162 0.99147,-3.27315c0.609,-0.48916 1.87295,-0.71734 2.63953,-0.72719c3.82961,-0.04925 7.68549,0.10834 11.5151,0.22653l21.74326,0.74852c5.57616,0.17236 11.15233,0.38739 16.72685,0.65003c2.60013,0.11491 5.20354,0.13132 7.79383,0.42186c2.47045,0.27577 3.45042,1.41333 3.52101,3.89527c0.07715,2.71832 0.04597,5.45305 0.05253,8.17301l0.00657,16.41332l0.00492,11.19828c-0.01477,7.89067 1.19993,10.10341 -7.76592,9.31878l-2.39166,0.02955l-2.13067,-0.10014c-3.81156,-0.06894 -7.78233,-0.26428 -11.5709,-0.23145c-3.86573,-0.15431 -7.73309,-0.28726 -11.60045,-0.39724c-2.07485,-0.06237 -5.42678,-0.087 -7.40151,-0.3562c-4.18253,-0.31025 -9.1021,-0.37754 -13.37327,-0.56631z" id="Path-1-106" fill="#8d5329"/><path d="M1067.24441,645.17396c-9.5256,-0.46619 -8.83945,0.32009 -8.78857,-9.02003l-0.0082,-11.42974l-0.01477,-16.34273c-0.00164,-2.84636 -0.04268,-5.79777 0.05089,-8.63099c0.11326,-0.99475 0.16579,-2.61162 0.99147,-3.27315c0.609,-0.48916 1.87295,-0.71734 2.63953,-0.72719c3.82961,-0.04925 7.68549,0.10834 11.5151,0.22653l21.74326,0.74852c5.57616,0.17236 11.15233,0.38739 16.72685,0.65003c2.60013,0.11491 5.20354,0.13132 7.79383,0.42186c2.47045,0.27577 3.45042,1.41333 3.52101,3.89527c0.07715,2.71832 0.04597,5.45305 0.05253,8.17301l0.00657,16.41332l0.00492,11.19828c-0.01477,7.89067 1.19993,10.10341 -7.76592,9.31878l-2.39166,0.02955l-2.13067,-0.10014l0.36934,-0.09521l0.13296,-0.24786c-0.45469,-2.52626 -6.67597,-9.81779 -8.42744,-12.00262c2.51149,-2.37688 3.79678,-2.55089 5.7633,-5.90118c2.55745,-0.25443 4.56993,-0.5975 6.61359,-2.34406c3.18943,-2.7216 4.06599,-8.56369 1.06861,-11.73506c-2.27183,-2.4048 -5.13625,-2.31615 -8.15331,-2.41136c-0.39889,-1.00459 -0.89133,-1.96979 -1.47078,-2.88247c-6.87623,-10.81254 -22.4606,-12.5558 -31.2229,-2.93171c-1.47898,1.62509 -2.85621,4.34012 -3.29448,6.49212c-0.32502,-0.04268 -0.65003,-0.07879 -0.97669,-0.10669c-8.39954,-0.72719 -9.41398,8.31089 -5.00821,13.36013c2.14543,2.4606 5.21667,2.91858 8.34372,2.91366c0.57945,1.21635 1.49212,2.13887 2.3933,3.12541c-3.19764,2.60341 -9.27446,9.29087 -10.07715,13.21569z" id="Path-1-107" fill="#639982"/><path d="M1113.32121,646.82532l-0.41037,-0.21668c0.14281,-0.33322 3.00065,-2.44912 3.73276,-3.34208c1.84504,-2.25542 3.48982,-7.96454 0.17071,-9.57321c-2.37688,-1.15233 -1.44944,4.25804 -3.47833,4.83748c-2.47374,-0.32337 -2.28168,-5.71241 -0.17236,-6.804c6.1474,-3.17794 9.79645,2.38838 8.57517,8.04661c-0.59587,2.75772 -3.44057,6.55778 -6.02593,7.02232z" id="Path-1-108" fill="#8d5329"/><path d="M1080.61768,645.74029l0.59915,-0.12147c0.24294,-0.49245 0.34472,-1.64971 0.40874,-2.18647c0.59258,-5.03119 3.54728,-5.90446 8.0302,-5.70748c3.44386,0.14938 7.57715,0.76166 8.77708,4.67662c0.26756,1.05219 0.35292,2.70355 0.45962,3.82797c0.33979,0.16579 0.36277,0.18713 0.72719,0.26428c-3.86573,-0.15431 -7.73309,-0.28726 -11.60045,-0.39724c-2.07485,-0.06237 -5.42678,-0.087 -7.40151,-0.3562z" id="Path-1-109" fill="#fecb6c"/><path d="M1083.23423,607.80203c3.38312,0.03612 5.1937,2.2193 7.32435,4.44353c1.27216,-1.40841 2.27183,-2.57551 3.97407,-3.47997c3.63263,-1.9304 7.8759,0.18878 9.4665,3.76724c1.19008,2.67728 1.01444,5.99638 0.00164,8.71306c5.74523,3.6392 1.34767,9.63558 -3.0778,12.07978c-6.68088,3.45207 -16.92875,3.03841 -22.32599,-2.64938c-1.41825,-1.4954 -2.59684,-3.50459 -2.47209,-5.62704c0.10342,-1.74655 0.95864,-2.77577 2.19797,-3.86573c-0.70749,-1.40184 -1.32469,-2.66415 -1.52823,-4.23835c-0.60572,-4.68647 1.71864,-8.39954 6.43959,-9.14313z" id="Path-1-110" fill="#fecb6c"/><path d="M1090.11374,619.62244c2.73309,-0.20519 6.09815,1.86967 1.79251,3.32403c-1.36409,0.10342 -2.91201,-0.09521 -3.69008,-1.35424c-0.14938,-1.31156 0.87,-1.54629 1.89757,-1.96979z" id="Path-1-111" fill="#8d5329"/><path d="M1083.20304,625.60897c0.3562,0.3759 0.79941,1.14248 1.13263,1.58732c3.34045,4.46815 10.0558,4.85555 13.60965,0.44977c0.34307,-0.42679 1.15725,-1.68581 1.53152,-1.94189l0.44649,0.35457c-4.51903,8.65232 -16.92218,5.02791 -16.72028,-0.44977z" id="Path-1-112" fill="#4f2305"/><path d="M1081.71092,616.91233c2.674,0.04597 2.62311,2.88247 1.14248,4.42219c-2.4885,0.09849 -2.67892,-2.95798 -1.14248,-4.42219z" id="Path-1-113" fill="#8d5329"/><path d="M1098.66922,617.08304c2.674,0.12639 2.55909,3.02528 0.73867,4.51903c-2.31615,-0.47931 -2.33913,-3.06303 -0.73867,-4.51903z" id="Path-1-114" fill="#8d5329"/><path d="M1109.5983,615.19204l0.37754,-0.02955c5.087,-0.38411 6.73177,5.33651 3.53578,8.70649c-0.86835,0.54661 -2.68713,1.36901 -3.695,0.91267c-0.12639,-0.37754 0.10669,-2.53939 0.16579,-3.11227c0.21503,-2.0765 -0.43171,-4.64379 -0.38411,-6.47734z" id="Path-1-115" fill="#fecb6c"/><path d="M1070.75393,615.20189c0.56468,-0.05089 0.84537,-0.12476 1.38378,0.07059c0.18549,0.45469 0.57125,8.78365 0.64675,9.79809c-1.26724,-0.11491 -1.43795,-0.13953 -2.60177,-0.53676c-3.32238,-2.33256 -3.78364,-7.77413 0.57125,-9.33191z" id="Path-1-116" fill="#fecb6c"/><path d="M916.88238,642.69696c1.65561,3.19599 6.64708,2.9826 9.90528,3.26821l12.02527,0.97177l22.69927,1.68089c4.6543,0.3365 9.3035,0.77479 13.97274,0.8979c1.45782,0.0394 2.92778,-0.01477 4.33667,-0.42351c0.01412,0 0.02807,-0.00164 0.04219,-0.00164c0.78792,0.22816 1.55006,-0.21175 2.27889,-0.57616c1.99934,0.98654 4.41071,-0.43992 6.58568,0.12311c-4.00525,2.26691 -7.36375,2.36703 -11.87836,2.44255c-5.61818,0.09357 -11.13919,-0.19369 -16.75016,-0.42186c-9.62491,-0.42351 -19.25392,-0.74688 -28.88557,-0.96849c-3.37606,-0.07551 -6.82796,-0.22488 -10.19566,-0.25608c-2.52511,-0.02462 -4.61786,1.41004 -7.51476,1.49868c-3.92662,0.11983 -7.81926,0.13461 -11.74212,0.20519c-9.67219,0.20354 -19.34601,0.32337 -29.02018,0.3562l-12.58092,0.17071c-1.772,0.02627 -5.7935,0.15431 -7.51132,-0.07059l-0.10079,-0.2692c-0.4194,-0.25443 -0.96488,-0.14281 -1.48933,-0.11491c9.7756,-1.02922 19.55876,-1.98457 29.34863,-2.86934l14.62376,-1.36572c4.23998,-0.38082 15.58305,-1.05384 18.79399,-2.49507c1.90742,0.40381 1.88952,-0.76166 3.05679,-1.78266z" id="Path-1-117" fill="url(#color-4)"/></g></g></g><text x="788.83749" y="680.9526" transform="scale(1,1.02083)" id="PointText-1" fill="#000000" font-family="font-BebasNeue" font-weight="normal" font-size="40" text-anchor="start">Pairwise Alignment Primitives</text></g></g></g></g></svg>